<?xml version="1.0" encoding="utf-8"?>
<!-- Uploaded to: SVG Repo, www.svgrepo.com, Generator: SVG Repo Mixer Tools -->
<svg width="800px" height="800px" viewBox="-31.26 0 352.882 352.882" xmlns="http://www.w3.org/2000/svg"><defs><style>.a{fill:#ffffff;}.b{fill:#7a7473;}.c{fill:#211715;}.d{fill:#79c6e0;}</style></defs><path class="a" d="M256.447,350.4l-23.468.138c-.29-12.181-.29-20.32-.29-30.181,0-2.124-.088-20.85-.176-41.012l1.287-.128c8.389-.953,25.083-2.453,38.049-4.195l.822,7.715c2.562,23.751,5.089,48.614,7.007,67.527Z"/><path class="a" d="M113.706,167.553c7.206,7.69,17.913,13.8,17.913,13.8a58.4,58.4,0,0,0,26.556,6.176c5.945-.012,16.093-.321,26.777-6.954,8.3-5.15,13.21-11.454,14.976-14.7,14.427,6.442,18.328,7.54,29.206,12.526a89.031,89.031,0,0,1,19.535,11.957,42.619,42.619,0,0,1,12.482,16.572c4.85,12.308,10.84,38.619,15.479,66.376a1,1,0,0,1-.834,1.158c-13.316,1.978-32.726,3.7-42,4.752l-1.287.108c.088,20.169.176,38.907.176,41.032,0,9.861,0,18,.29,30.181l-152.586.028c.018-11.143.6-18.452.6-28.322,0-2.437-.041-17.5-.039-19.837L38.574,252.771c2.7-14,4.969-22.493,6.592-28.445,4-14.666,11.778-33.333,21.26-38.518Z"/><path class="a" d="M96.648,210.993c-3.713,18.372-6.643,46.518-10.409,66.37-2.412,12.716-7.121,25.977-18.184,33.186-4.324,2.817-12.513,4.376-17.555,3.111-7.677-1.926-12.943-9.371-14.889-17.63-1.413-6-1.415-13.247-.754-20.511l3.873-12.082c7.251-21.037,19.094-46.518,28.576-67.851,0,0,5.549-14.363,22.272-8.12C100.689,191.614,96.648,210.993,96.648,210.993Z"/><path class="a" d="M208.826,87.55a7.983,7.983,0,0,1,6.386-1.869,7.541,7.541,0,0,1,5.42,3.6,10.644,10.644,0,0,1,1.115,4.287,31.927,31.927,0,0,1-3.256,16.927,20.286,20.286,0,0,1-5.248,6.888c-1.775,1.416-3.558,2.22-6.136,1.435l-.805-.245a57.29,57.29,0,0,1-1.762,5.986c-1.681,4.564-10.523,19.894-21.972,27.222.139,1.04.3,2.083.48,3.116.62,3.59.43,6.79,5.41,8.59.2.08,5.73,2.69,10,4.71a47.456,47.456,0,0,1-13.506,12.377c-10.684,6.633-20.832,6.942-26.777,6.954a58.4,58.4,0,0,1-26.556-6.176s-10.707-6.112-17.913-13.8c4.275-1.973,8.626-4,8.8-4.063,4.99-1.8,4.79-5,5.42-8.59.19-1.06.35-2.08.49-3.09a56.292,56.292,0,0,1-12.481-11.3,62.71,62.71,0,0,1-11.545-21.236l-1.2.3c-2.914.785-5.141-.77-6.916-2.186a20.286,20.286,0,0,1-5.248-6.888,31.927,31.927,0,0,1-3.256-16.927,10.661,10.661,0,0,1,1.116-4.287,7.537,7.537,0,0,1,5.419-3.6,7.983,7.983,0,0,1,6.386,1.869S89.726,27.91,152.541,27.91C217.726,27.91,208.826,87.55,208.826,87.55Z"/><path class="b" d="M219.616,57.876a61.145,61.145,0,0,0-20.132-38.74l-8.342-6.327A63.761,63.761,0,0,0,155.373,2.424c-15.124,0-27.965,4.506-38.242,12.058C105.2,23.25,91.685,38.869,90.6,64.149a59.43,59.43,0,0,0,2.961,21.685,6.824,6.824,0,0,1,.742-.153,7.983,7.983,0,0,1,6.386,1.869l6.325-6.631a163.6,163.6,0,0,1,34.594-27.945,1.893,1.893,0,0,1,2.752,1.761c.184,3.525.46,9.092,1,9.077,5.931-.168,19.971-7.74,28.367-13.671l10.55,3.388c7.483,3.2,14.882,12,17.659,16.645a43.373,43.373,0,0,1,6.127,18.2,7.794,7.794,0,0,1,10.067-1.625c2.284-7.992,2.345-14.878,2.014-22.605Q220.008,60.908,219.616,57.876Z"/><path class="c" d="M130.408,183.427c18.259,9.3,42.537,9.275,59.318-3.2a47.265,47.265,0,0,0,11.41-11.706c1.705-2.586-2.45-4.993-4.145-2.423-5.312,8.056-14.374,14.363-23.7,17.111a56.539,56.539,0,0,1-22.989,1.437,54.015,54.015,0,0,1-17.476-5.362c-2.747-1.4-5.179,2.741-2.422,4.144Z"/><path class="c" d="M270.271,282.735q2.924,27.119,5.659,54.256.675,6.635,1.348,13.271a2.469,2.469,0,0,0,2.4,2.4,2.416,2.416,0,0,0,2.4-2.4q-2.625-25.887-5.328-51.765-.829-7.882-1.679-15.762a2.471,2.471,0,0,0-2.4-2.4,2.415,2.415,0,0,0-2.4,2.4Z"/><path class="c" d="M206.3,171.27c8.231,3.512,16.629,6.684,24.662,10.645a86.69,86.69,0,0,1,11.073,6.489,54.413,54.413,0,0,1,9.954,8.381,42.01,42.01,0,0,1,6.841,10.8,72.406,72.406,0,0,1,2.836,8.28c2.4,7.926,4.335,16,6.12,24.084q1.794,8.129,3.357,16.305.817,4.248,1.583,8.506.411,2.284.807,4.571.189,1.089.375,2.18l.165.971.082.486q.1.975.131,0l.861-.861a7.512,7.512,0,0,1-2.417.391q-1.134.159-2.271.306-2.863.374-5.731.711-5.718.678-11.444,1.271c-6.493.684-12.994,1.3-19.481,2.029a2.473,2.473,0,0,0-2.4,2.4,2.415,2.415,0,0,0,2.4,2.4c10.82-1.225,21.669-2.175,32.48-3.486,2.93-.355,5.858-.733,8.78-1.151,1.642-.235,3.2-.643,3.79-2.413.569-1.712-.265-4.038-.566-5.783q-1.866-10.822-4.06-21.583a338.342,338.342,0,0,0-8.566-34.651,55.629,55.629,0,0,0-6.27-13.9c-3.549-5.41-8.152-9.505-13.358-13.269-11.32-8.187-24.567-12.813-37.311-18.251a2.48,2.48,0,0,0-3.283.861,2.417,2.417,0,0,0,.861,3.284Z"/><path class="d" d="M287.508,141.39c1.838-5.987-2.033-12.775-6.964-16.04-8.1-5.36-20.872-4.886-27.317,2a.754.754,0,0,0,.143,1.119A66.793,66.793,0,0,1,268.924,143.8c4.786,6.265,14.456,8.416,18.285-1.544C287.321,141.964,287.42,141.676,287.508,141.39Z"/><path class="c" d="M210.523,89.247a5.515,5.515,0,0,1,7.65.641c1.086,1.375,1.188,3.342,1.261,5.018a28.522,28.522,0,0,1-.3,5.8,29.439,29.439,0,0,1-4.016,10.913c-1.546,2.46-4.106,5.783-7.37,4.885-2.982-.821-4.255,3.809-1.276,4.628,8.375,2.3,13.868-7.6,16.056-14.158a33.818,33.818,0,0,0,1.7-12.294c-.2-4.028-1.274-7.86-4.943-10.05a10.471,10.471,0,0,0-12.151,1.22,2.42,2.42,0,0,0,0,3.394,2.449,2.449,0,0,0,3.394,0Z"/><path class="c" d="M204.5,114.053a27.283,27.283,0,0,1-1.331,6.968c-.256.846-.534,1.686-.819,2.523-.068.2-.139.4-.209.6-.028.079-.065.154-.093.232-.154.438.218-.482.028-.066a59.379,59.379,0,0,1-3.579,6.612,65.559,65.559,0,0,1-14.163,16.656A26.286,26.286,0,0,1,173.822,153c-3.009.693-1.735,5.322,1.276,4.629,7.962-1.831,14.588-7.654,19.79-13.688a72.224,72.224,0,0,0,11.15-16.79,35.181,35.181,0,0,0,3.265-13.093c.1-3.089-4.7-3.085-4.8,0Z"/><path class="c" d="M102.391,85.853a10.483,10.483,0,0,0-11.137-1.73c-3.85,1.707-5.466,5.253-5.862,9.248-.806,8.131,1.636,17.222,6.948,23.507,2.843,3.363,6.944,6.066,11.49,5.008,3.008-.7,1.735-5.328-1.276-4.628-3.171.737-6.254-2.778-7.814-5.114a28.968,28.968,0,0,1-4.276-10.994,28.513,28.513,0,0,1-.395-5.8c.048-1.687.088-3.715,1.075-5.164A5.469,5.469,0,0,1,99,89.247a2.464,2.464,0,0,0,3.4,0,2.421,2.421,0,0,0,0-3.394Z"/><path class="c" d="M99.6,108.512c2.229,17.991,12.336,35.611,27.75,45.464a37.751,37.751,0,0,0,14.679,5.687,2.48,2.48,0,0,0,2.952-1.676,2.418,2.418,0,0,0-1.676-2.953c-8.837-1.308-16.4-6.351-22.5-12.683a60.53,60.53,0,0,1-14.032-23.507q-.919-2.863-1.568-5.8-.279-1.273-.5-2.558-.106-.617-.2-1.236c-.024-.157-.046-.314-.068-.471.058.419-.018-.148-.033-.263a2.476,2.476,0,0,0-2.4-2.4,2.415,2.415,0,0,0-2.4,2.4Z"/><path class="c" d="M172.755,47.9a118.23,118.23,0,0,1-14.866,8.924,67.586,67.586,0,0,1-7.2,3.226c-1,.368-2.018.705-3.053.972-.462.12-.926.213-1.394.308-.108.02-.216.038-.325.054q.384-.048.122-.019c-.286.079-.873-.1-.082.12l1.059.617c.274.246.451,1.065.364.438-.017-.12-.122-.669-.1-.535-.058-.387-.149-1.434-.2-2.067-.135-1.731-.157-3.475-.312-5.2a4.5,4.5,0,0,0-4.15-4.392c-2.02-.068-3.958,1.6-5.582,2.637A171.756,171.756,0,0,0,115.579,69.2a135.9,135.9,0,0,0-10.258,10.024c-2.082,2.275,1.3,5.679,3.394,3.394a152.8,152.8,0,0,1,32.342-26.5,19.293,19.293,0,0,0,1.766-1.073c.067.247-.891-.043-.767-.051-.186.012-.034-.746-.076.056a37.017,37.017,0,0,0,.27,4.545c.149,2.013-.056,5.809,2.427,6.518a6.883,6.883,0,0,0,2.947-.175,23.531,23.531,0,0,0,3.224-.869,65.586,65.586,0,0,0,7.507-3.135,115.9,115.9,0,0,0,16.823-9.891,2.465,2.465,0,0,0,.861-3.283,2.42,2.42,0,0,0-3.284-.861Z"/><path class="c" d="M183.068,55.6c5.877,2.576,10.793,7.516,14.613,12.577a40.659,40.659,0,0,1,7.9,19.384,2.474,2.474,0,0,0,2.4,2.4,2.415,2.415,0,0,0,2.4-2.4,45.419,45.419,0,0,0-8.555-21.807c-4.282-5.7-9.707-11.393-16.336-14.3a2.477,2.477,0,0,0-3.283.861,2.417,2.417,0,0,0,.861,3.284Z"/><path class="c" d="M113.514,170.272q3.806-1.752,7.605-3.517c.757-.351,1.517-.7,2.275-1.05s-.8.311,0,0a13.746,13.746,0,0,0,2.126-.984,8.822,8.822,0,0,0,4.053-5.428,59.085,59.085,0,0,0,1.149-6.848,2.482,2.482,0,0,0-1.676-2.953,2.418,2.418,0,0,0-2.952,1.677,66.133,66.133,0,0,1-1.107,6.681,10.326,10.326,0,0,1-.36,1.14c.236-.629-.05.065-.123.194-.085.152-.183.292-.274.439-.152.212-.135.191.054-.063-.078.094-.159.184-.243.272a6.3,6.3,0,0,1-.564.52c.411-.337-.137.075-.191.109a8.729,8.729,0,0,1-.8.448c-.465.23-1.124.467-1.8.776-.732.336-1.464.676-2.195,1.014q-3.7,1.716-7.406,3.425a2.419,2.419,0,0,0-.861,3.284,2.455,2.455,0,0,0,3.283.861Z"/><path class="c" d="M180.254,152.428c.193,1.414.446,2.818.656,4.229a22.2,22.2,0,0,0,.523,2.8,8.813,8.813,0,0,0,4.2,5.375c.282.159.573.3.867.429l.813.343q.522.216-.053-.04c.153.076.312.143.467.215q1.1.512,2.193,1.029,3.665,1.727,7.325,3.459a2.466,2.466,0,0,0,3.283-.861,2.421,2.421,0,0,0-.861-3.284q-3.465-1.64-6.934-3.274-1.19-.561-2.381-1.119c-.2-.091-.389-.184-.585-.272-.474-.213-.833-.331-1.074-.444a9.327,9.327,0,0,1-1.374-.792c.438.305-.19-.179-.27-.258-.1-.1-.584-.714-.219-.2a8.539,8.539,0,0,1-.607-1.037c.3.588-.016-.069-.064-.218-.071-.218-.132-.439-.187-.661a64.281,64.281,0,0,1-1.092-6.7,2.415,2.415,0,0,0-2.952-1.677,2.465,2.465,0,0,0-1.676,2.953Z"/><path class="c" d="M192.353,10.736a69.744,69.744,0,0,0-64.606-5.12A66.385,66.385,0,0,0,90.63,84.52c.867,2.958,5.5,1.7,4.629-1.276a61.7,61.7,0,0,1,12.3-56.694,62.886,62.886,0,0,1,18.971-15.065,63.672,63.672,0,0,1,30.652-6.64,62.893,62.893,0,0,1,32.753,10.036c2.606,1.675,5.016-2.479,2.422-4.145Z"/><path class="c" d="M221.1,84.894a69.836,69.836,0,0,0,1.562-17.418,85.066,85.066,0,0,0-1.735-16.095,63.139,63.139,0,0,0-10.866-24.172,65.763,65.763,0,0,0-8.878-9.77c-2.294-2.058-5.7,1.326-3.394,3.394a59.629,59.629,0,0,1,13.584,17.661,64.643,64.643,0,0,1,6.415,26.615,69.776,69.776,0,0,1-1.317,18.509c-.694,3.007,3.932,4.29,4.629,1.276Z"/><path class="c" d="M103.7,165.421C91.4,170.672,78.58,175.14,67.533,182.858a2.464,2.464,0,0,0-.861,3.284,2.421,2.421,0,0,0,3.284.861c11.045-7.717,23.865-12.187,36.17-17.438a2.413,2.413,0,0,0,.861-3.283,2.462,2.462,0,0,0-3.283-.861Z"/><path class="c" d="M65.234,194.374c-7.951,17.883-16.179,35.658-23.389,53.859-1.909,4.818-3.737,9.668-5.43,14.566-1.011,2.926,3.624,4.183,4.629,1.276,6.218-17.994,14.066-35.4,21.84-52.76q3.251-7.257,6.494-14.518a2.476,2.476,0,0,0-.861-3.284,2.418,2.418,0,0,0-3.283.861Z"/><path class="c" d="M37,248.281c-2.681,12.617-5.4,25.586-4.926,38.554.235,6.475,1.4,12.988,4.726,18.64,3.217,5.473,8.469,9.971,14.916,10.83a27.234,27.234,0,0,0,18.492-4.323,39.114,39.114,0,0,0,12.5-15.254,76.88,76.88,0,0,0,5.911-19.076c1.249-6.625,2.267-13.292,3.243-19.962,2.035-13.907,3.743-27.877,6.266-41.707q.4-2.18.834-4.352a2.46,2.46,0,0,0-1.676-2.952,2.423,2.423,0,0,0-2.952,1.676C91.762,223.136,90.129,236.1,88.3,249c-.95,6.7-1.915,13.4-3.022,20.069a128.3,128.3,0,0,1-3.994,18.276,44.175,44.175,0,0,1-8.473,15.906,26.527,26.527,0,0,1-6.89,5.775,23.351,23.351,0,0,1-8.18,2.481,17.289,17.289,0,0,1-8.094-.617,15.952,15.952,0,0,1-6.475-4.69c-3.8-4.362-5.527-10.2-6.07-15.862-1.188-12.4,1.233-25.028,3.755-37.121q.381-1.831.773-3.661c.64-3.013-3.986-4.3-4.629-1.276Z"/><path class="c" d="M65.214,183.735c-3.879,2.168-6.834,5.7-9.309,9.316a79.26,79.26,0,0,0-7.416,14.189,175,175,0,0,0-8.222,26.39c-1.5,6.131-2.808,12.307-4.007,18.5a2.462,2.462,0,0,0,1.676,2.952,2.421,2.421,0,0,0,2.952-1.676c1.8-9.275,3.886-18.48,6.362-27.6,2.628-9.677,6.021-19.37,11.269-27.964,2.35-3.849,5.264-7.814,9.118-9.968,2.7-1.507.279-5.655-2.423-4.145Z"/><path class="c" d="M289.822,142.028c2.19-7.613-2.636-15.715-9.2-19.445a26.378,26.378,0,0,0-20.632-2.09,21.6,21.6,0,0,0-4.74,2.153,12.86,12.86,0,0,0-4.1,3.5,3.219,3.219,0,0,0-.078,3.3,9.221,9.221,0,0,0,2.689,2.262,56.953,56.953,0,0,1,4.593,3.83,73.191,73.191,0,0,1,7.974,8.8,18.465,18.465,0,0,0,6.789,5.877,11.893,11.893,0,0,0,9.346.573c3.805-1.533,6.117-4.97,7.354-8.761.961-2.944-3.673-4.2-4.628-1.276-.779,2.387-2.149,4.574-4.343,5.547.263-.117-.285.1-.367.123-.238.075-.479.136-.722.191a4.073,4.073,0,0,1-1.336.1,3.733,3.733,0,0,1-1.113-.117,10.782,10.782,0,0,1-1.734-.512c.221.086-.32-.144-.395-.18-.241-.117-.478-.242-.711-.373a13.985,13.985,0,0,1-1.343-.865,14.559,14.559,0,0,1-2.363-2.376,104.125,104.125,0,0,0-6.76-7.954q-2.012-2.058-4.21-3.92c-.741-.627-1.5-1.233-2.266-1.828a21.686,21.686,0,0,1-2.684-2.05l.617,1.059,0,.034-.328,1.211a8,8,0,0,1,2.671-2.135,16.312,16.312,0,0,1,3.455-1.585,21.758,21.758,0,0,1,8.089-.961c5.463.34,11,2.74,14.046,7.451a11.151,11.151,0,0,1,1.792,9.141C284.338,143.726,288.969,145,289.822,142.028Z"/><path class="c" d="M.063,66.667a14.064,14.064,0,0,0,2.023,8.706A9.974,9.974,0,0,0,5.7,78.814a17.468,17.468,0,0,0,4.01,1.267c2.123.531,4.7.956,6.433,2.387,2.1,1.733,2.345,4.48,2.006,7.073a2.412,2.412,0,0,0,2.4,2.4,2.461,2.461,0,0,0,2.4-2.4,11.869,11.869,0,0,0-2.113-8.947c-1.889-2.507-4.581-3.712-7.54-4.538-2.139-.6-4.784-.692-6.383-2.283-1.8-1.8-2.292-4.676-2.052-7.106a2.416,2.416,0,0,0-2.4-2.4,2.452,2.452,0,0,0-2.4,2.4Z"/><path class="c" d="M13.892,54.034a14.064,14.064,0,0,0,2.023,8.706,9.966,9.966,0,0,0,3.616,3.441,17.452,17.452,0,0,0,4.01,1.267c2.122.531,4.7.956,6.433,2.387,2.1,1.733,2.345,4.48,2.006,7.073a2.411,2.411,0,0,0,2.4,2.4,2.462,2.462,0,0,0,2.4-2.4,11.865,11.865,0,0,0-2.114-8.947c-1.888-2.507-4.58-3.712-7.539-4.538-2.139-.6-4.784-.692-6.383-2.283-1.8-1.8-2.292-4.676-2.052-7.106a2.417,2.417,0,0,0-2.4-2.4,2.452,2.452,0,0,0-2.4,2.4Z"/><path class="c" d="M28.379,40.8A14.065,14.065,0,0,0,30.4,49.506a9.98,9.98,0,0,0,3.616,3.44,17.519,17.519,0,0,0,4.01,1.268c2.123.53,4.7.955,6.433,2.386,2.1,1.733,2.345,4.48,2.006,7.073a2.412,2.412,0,0,0,2.4,2.4,2.461,2.461,0,0,0,2.4-2.4,11.87,11.87,0,0,0-2.113-8.947c-1.888-2.506-4.581-3.711-7.54-4.538-2.139-.6-4.784-.691-6.383-2.283-1.8-1.8-2.292-4.676-2.052-7.106a2.416,2.416,0,0,0-2.4-2.4,2.453,2.453,0,0,0-2.4,2.4Z"/><path class="a" d="M63.518,166.487l22.07-38.536a94.718,94.718,0,0,1,8.306-12.843,47.489,47.489,0,0,1,16.868-13.115,8.5,8.5,0,0,1,5.114-1.06c4.058.814,5.065,6.069,5.189,10.206q1.182,39.662,2.365,79.324c.107,3.572-.225,7.924-3.423,9.519-1.938.967-4.248.5-6.4.719-6.185.626-10.994,6.877-17.2,6.587-4.018-.188-7.364-3.129-9.867-6.277s-4.6-6.726-7.822-9.129c-6.53-4.865-16.391-3.187-19.676-10.638C57.833,178.512,61.21,170.869,63.518,166.487Z"/><path class="c" d="M65.591,167.7,81.337,140.2c2.569-4.487,5.118-8.985,7.713-13.457a68.753,68.753,0,0,1,8.159-11.83,45.309,45.309,0,0,1,9.838-8.206,35.69,35.69,0,0,1,5.587-2.932c1.619-.634,3.178-.833,4.246.415,2.081,2.432,1.782,6.863,1.874,9.938l.469,15.715.944,31.68.469,15.715c.147,4.945.516,9.94.4,14.886a9.565,9.565,0,0,1-.92,4.532c-.862,1.5-2.448,1.565-4.054,1.573a17.4,17.4,0,0,0-5.98.84,33.087,33.087,0,0,0-5.35,2.645c-2.854,1.668-6.118,3.88-9.587,2.96-3.869-1.026-6.433-4.666-8.676-7.717-2.542-3.458-5.217-6.816-9.17-8.717-3.114-1.5-6.472-2.2-9.739-3.255-2.8-.9-4.938-2.2-6.3-4.607-.09-.159-.073-.306-.064-.184a6.5,6.5,0,0,1-.005-.814,10.215,10.215,0,0,1,.384-2.024,35.108,35.108,0,0,1,1.7-4.827c.7-1.643,1.485-3.253,2.314-4.835,1.432-2.733-2.709-5.163-4.145-2.422a51.534,51.534,0,0,0-4.535,10.961,10.822,10.822,0,0,0-.354,5.113,10,10,0,0,0,2.824,4.53c5.337,5.128,13.878,3.927,19.21,9.038,3.368,3.228,5.458,7.547,8.927,10.686s7.9,4.913,12.577,3.639c3.94-1.072,7.06-3.8,10.775-5.354,4.037-1.687,9.042.266,12.309-3.332,2.957-3.257,2.714-8,2.592-12.09l-.506-16.962-1.012-33.925-.506-16.962-.253-8.481a30.269,30.269,0,0,0-.662-6.152c-.951-3.986-3.755-7.757-8.261-7.538-2.581.125-5.007,1.391-7.248,2.577a47.5,47.5,0,0,0-5.962,3.743,51.356,51.356,0,0,0-10.4,10.222,120.328,120.328,0,0,0-8.436,13.483L65.662,157.915l-4.216,7.361C59.908,167.961,64.054,170.381,65.591,167.7Z"/><path class="c" d="M168.185,64.991c-.533,3.385-.382,7.309,2.231,9.868a8.215,8.215,0,0,0,10.192.669,7.431,7.431,0,0,0,3.294-5.977,2.4,2.4,0,1,0-4.8,0,3.087,3.087,0,0,0-.022.458s.1-.514.032-.267c-.026.094-.039.193-.064.288-.035.14-.1.279-.128.419-.048.23.083-.223.105-.237-.049.032-.1.2-.127.259-.068.127-.141.251-.22.372a1.551,1.551,0,0,0-.165.236c0-.024.325-.359.151-.2-.1.086-.666.562-.674.66,0-.01.4-.286.195-.153-.061.04-.12.086-.181.126-.143.095-.291.184-.442.266-.13.071-.265.132-.4.2-.23.116.235-.1.231-.1a1.581,1.581,0,0,0-.282.1c-.142.046-.286.088-.431.123-.087.022-.686.117-.27.071s-.108.005-.2.011c-.176.009-.352.011-.528,0-.105,0-.7-.075-.265-.007.414.064-.067-.016-.163-.036a7.613,7.613,0,0,1-.822-.234c-.384-.126.5.258.058.015-.106-.059-.215-.114-.319-.177s-.2-.14-.3-.2c-.2-.116.262.209.25.2a1.658,1.658,0,0,0-.179-.155c-.1-.093-.2-.19-.294-.292-.069-.074-.337-.411-.081-.074s0-.013-.057-.1q-.133-.2-.249-.416c-.058-.108-.1-.226-.165-.331-.123-.209.122.307.117.286-.015-.06-.048-.118-.069-.177-.1-.288-.193-.575-.264-.871-.036-.153-.069-.307-.1-.462-.012-.067-.019-.136-.034-.2-.067-.294.047.531.029.225-.02-.36-.062-.717-.068-1.079s0-.7.029-1.055c.014-.208.035-.414.055-.621.007-.073.047-.351,0,0-.059.418.02-.114.027-.158a2.462,2.462,0,0,0-1.676-2.952,2.428,2.428,0,0,0-2.953,1.676Z"/><path class="c" d="M235.379,350.536c-.257-10.88-.257-21.759-.3-32.642q-.036-9.555-.083-19.111-.063-14.365-.126-28.729-.058-13.672-.108-27.346c-.017-5.122-.062-10.246-.027-15.368,0-.18,0-.36.006-.541.051-3.09-4.749-3.09-4.8,0-.074,4.381,0,8.768.012,13.149q.042,13.224.1,26.447.062,14.578.128,29.156.047,10.431.091,20.861c.037,9.2.006,18.4.167,27.606q.057,3.26.136,6.518c.072,3.084,4.872,3.095,4.8,0Z"/><path class="c" d="M78.553,302.4c-.008,10.979.129,21.948-.234,32.923-.168,5.078-.314,10.155-.326,15.236-.008,3.089,4.792,3.094,4.8,0,.02-8.651.508-17.29.588-25.94.047-5.105,0-10.213-.016-15.319,0-2.3-.014-4.6-.012-6.9,0-3.089-4.8-3.094-4.8,0Z"/><path class="c" d="M154.431,106.437a48.842,48.842,0,0,1,1.147,5.248l-.086-.638a3.2,3.2,0,0,1,.02.725l.086-.638a1.815,1.815,0,0,1-.08.325l.242-.573a1.379,1.379,0,0,1-.115.21l.375-.486a1.093,1.093,0,0,1-.171.169l.485-.375a3.356,3.356,0,0,1-.415.22l.573-.242a3.062,3.062,0,0,1-.7.2l.638-.086a2.725,2.725,0,0,1-.657,0l.638.086c-.248-.035-.492-.095-.74-.128a2.649,2.649,0,0,0-1.849.242,2.4,2.4,0,0,0-.861,3.283,2.293,2.293,0,0,0,1.434,1.1c.539.073,1.062.211,1.609.235a5.079,5.079,0,0,0,2.338-.552,3.31,3.31,0,0,0,1.855-2.19,5.626,5.626,0,0,0-.025-2.392c-.286-1.691-.677-3.367-1.112-5.025a2.4,2.4,0,1,0-4.628,1.276Z"/><path class="c" d="M126.4,91.65c-.876,2.849-.3,9.4,5.091,9.959,7.132-.043,7.512-7.965,5.111-11.689C134.634,86.87,128.854,85.6,126.4,91.65Z"/><path class="c" d="M183.511,91.651c.877,2.848.306,9.4-5.091,9.958-7.132-.043-7.511-7.965-5.111-11.69C175.275,86.87,181.055,85.6,183.511,91.651Z"/><path class="c" d="M156.482,139.532a20.465,20.465,0,0,1,2.617.327,23.716,23.716,0,0,0,4.505.356,9.1,9.1,0,0,0,7.32-3.876c3.506-5.142.751-13.3-5.6-14.29a10.058,10.058,0,0,0-4.663.3c-1.25.415-2.42,1.411-3.718,1.639a4.586,4.586,0,0,1-2.854-.865,10.6,10.6,0,0,0-4.641-1.225,8.346,8.346,0,0,0-7.883,4.615,10.957,10.957,0,0,0-.22,8.567,8.563,8.563,0,0,0,7.458,5.669,16.788,16.788,0,0,0,4.69-.556c.61-.139,1.216-.3,1.824-.441q.39-.093.781-.176c.151-.031.3-.059.456-.083q-.45.06-.068.035c3.08-.107,3.094-4.907,0-4.8-2.991.1-7.39,2.8-9.806.094a5.955,5.955,0,0,1-1.223-4.866,3.628,3.628,0,0,1,3.8-3.258c2.164-.008,3.743,1.59,5.815,1.98a7.333,7.333,0,0,0,3.81-.264c1.051-.372,1.966-1.017,3-1.421,1.543-.605,3.79-.422,4.852.975a5.64,5.64,0,0,1,.547,5.085c-1.647,4.15-7.6,1.747-10.787,1.675C153.392,134.662,153.393,139.462,156.482,139.532Z"/></svg>