<?xml version="1.0" encoding="utf-8"?>
<!-- Uploaded to: SVG Repo, www.svgrepo.com, Generator: SVG Repo Mixer Tools -->
<svg width="800px" height="800px" viewBox="-55.73 0 408.825 408.825" xmlns="http://www.w3.org/2000/svg"><defs><style>.a{fill:#957f6e;}.b{fill:#ffffff;}.c{fill:#bdbdbd;}.d{fill:#ffda71;}.e{fill:#211715;}.f{fill:#fce8d1;}.g{fill:#f2635f;}</style></defs><path class="a" d="M128.1,246.744l.3-.184c3.189-1.978,6.149-4.129,6.741-5.591.78-1.936.745-4.485.731-6.734l0-.258a28.772,28.772,0,0,1-10.458-8.2,34.136,34.136,0,0,1-6.5-12.7l-1.282-.2a8.458,8.458,0,0,1-3.934-1.773,12.766,12.766,0,0,1-3.3-4.329,20.071,20.071,0,0,1-2.046-10.64,6.7,6.7,0,0,1,.7-2.695,4.734,4.734,0,0,1,3.406-2.264,5.052,5.052,0,0,1,3.766.966c2.425-.984,9.194-4.1,11-5.165a78.614,78.614,0,0,0,9.671-6.652l6.6-.748c8.533-2.765,18.116-8.668,22.422-13.933.911,4.89,2.312,9.737,7.214,16.7,2.384,3.383,5.843,7.611,10.682,10.011a5.019,5.019,0,0,1,4.015-1.174,4.734,4.734,0,0,1,3.406,2.264,6.7,6.7,0,0,1,.7,2.695,20.071,20.071,0,0,1-2.046,10.64,12.766,12.766,0,0,1-3.3,4.329,8.458,8.458,0,0,1-3.934,1.773l-.673.106c-.323,1.207-.686,2.224-.863,2.765-1.176,3.189-7.892,14.432-16.255,18.083-.012,2.339-.1,5.089.736,7.135.584,1.445,3.252,3.564,6.125,5.523.211-.925.39-1.783.521-2.535.718.346,1.489.766,2.289,1.246.633-1.011,1.305-2.081,1.305-2.081a35.182,35.182,0,0,1,5.367-5.7,1.865,1.865,0,0,1,.87-.5,2.321,2.321,0,0,1,1.248.336,5.746,5.746,0,0,0,4.671-.056c1.142-3.367,2.311-6.8,2.311-6.8,1.623-4.415,3.194-9.119,4.715-13.984.017-.245.026-.384.026-.384a132.186,132.186,0,0,1-2.006-22.4c-.109-5.794-.218-12.924-.428-15.873-.728-10.224-5.3-21.64-11.876-27.986-2.844-2.743-3.67-4.023-6.765-5.7l-7.429-3.625c-4.572-1.762-8.823-2.609-16.846-2.609-13.155,0-24.863,6.777-30.058,11.75-8.619,8.252-14.087,23.324-13.4,44.108a180.384,180.384,0,0,1-1.595,26.184s.018.3.054.834c3.29,8.678,6.407,16.387,8.321,20.564l3.992,1.2c1.082-.539,1.812-.923,2.925-1.393a1.317,1.317,0,0,1,1.621.463c1.035,1.207,2.044,2.481,3.3,3.822l2.532-1.322Z"/><path class="b" d="M183.8,192.353a5.019,5.019,0,0,1,4.015-1.174,4.734,4.734,0,0,1,3.406,2.264,6.7,6.7,0,0,1,.7,2.695,20.071,20.071,0,0,1-2.046,10.64,12.766,12.766,0,0,1-3.3,4.329,8.458,8.458,0,0,1-3.934,1.773l-.673.106c-.323,1.207-.686,2.224-.863,2.765-1.176,3.189-7.892,14.432-16.255,18.083-.012,2.339-.1,5.089.735,7.135.585,1.445,3.254,3.566,6.128,5.525-.778,3.411-2.064,7.919-3.627,12.955l-.472.194c-5.028,2-12.352,2.813-17.5,2.8a70.734,70.734,0,0,1-16.141-2.319l-1.515-.52c-1.851-5.058-3.392-9.535-4.36-12.86l.3-.184c3.189-1.977,6.149-4.129,6.741-5.591.78-1.936.745-4.485.731-6.734l0-.258a28.772,28.772,0,0,1-10.458-8.2,34.129,34.129,0,0,1-6.5-12.7l-1.282-.2a8.458,8.458,0,0,1-3.934-1.773,12.766,12.766,0,0,1-3.3-4.329,20.071,20.071,0,0,1-2.046-10.64,6.7,6.7,0,0,1,.7-2.695,4.734,4.734,0,0,1,3.406-2.264,5.052,5.052,0,0,1,3.766.966c2.425-.984,9.193-4.1,11-5.165a78.614,78.614,0,0,0,9.671-6.652l6.6-.748c8.533-2.765,18.116-8.668,22.422-13.933.911,4.89,2.312,9.737,7.214,16.7,2.384,3.383,5.843,7.611,10.682,10.011"/><path class="c" d="M211.039,273.483c3.119-13.185,12.975-50.819,16.881-67.255,5.82-24.488,6.507-28.709,12.485-54.615a1.774,1.774,0,0,0-1.244-2.1c-7.768-2.238-14.639-4.107-22.455-5.6a1.779,1.779,0,0,0-2.011,1.155c-3.672,10.4-6.242,22.5-11.095,40.955-3.992,15.183-8.413,31.082-13.307,44.393,0,0-1.169,3.431-2.311,6.8a5.746,5.746,0,0,1-4.671.056,2.321,2.321,0,0,0-1.248-.336,1.865,1.865,0,0,0-.87.5,35.182,35.182,0,0,0-5.367,5.7l-1.305,2.081c-.8-.48-1.571-.9-2.289-1.246-2.34,13.405-18.039,56.116-21.041,63.821-4.735-12.566-21.078-51.962-23.811-63.723l-2.532,1.322c-1.257-1.341-2.266-2.615-3.3-3.822a1.318,1.318,0,0,0-1.621-.463c-1.113.47-1.843.854-2.925,1.393l-3.992-1.2c-4.229-9.227-14.323-35.673-19.194-51.784-5.94-19.649-10.709-33.055-13.9-43.916a1.709,1.709,0,0,0-2.195-1.131c-8.6,2.937-15.642,5.47-22.746,8.54A1.7,1.7,0,0,0,54,154.983c2.748,10.294,6.987,23.5,15.972,52.952,5.1,16.27,20.073,59.225,22.805,67.826,4.973,17.333,8.559,26.6,12.221,45.111a32.611,32.611,0,0,1,.571,5.008c.208,5.1-6.515,30-9.347,38.261-2.7,7.881-5.148,11.842-7.667,20.731a1.882,1.882,0,0,0,.747,2.211l.658.375c9.558,2.747,37.264,3.271,45.647-.541,8.249-3.751,11.818-18.191,13.72-26.426l.117.27,6,13.777c3.222,7.556,6.871,10.912,12.889,13,12.166,4.223,36.148.815,45.046-1.139a5.135,5.135,0,0,0,4.323-3.393,5.347,5.347,0,0,0-.554-2.875c-5.556-16.889-8.976-19.751-14.371-36.963-1.555-4.963-3.473-10.945-3.555-15.852-.078-4.664,1.615-12.2,2.666-16.741,2.285-9.854,6.95-27.627,9.153-37.092"/><path class="b" d="M218.4,137.7a.869.869,0,0,0-.586.643c-.228,1.033-.638,3.539-.9,4.585l-.2.986c7.515,1.44,14.156,3.224,21.561,5.348l.129-.683c.271-1.722.83-3.875,1.079-5.009a.913.913,0,0,0-.674-1.057c-4.259-1.262-16.509-4.338-19.922-4.853A1.052,1.052,0,0,0,218.4,137.7Z"/><path class="b" d="M54.02,146.023a.915.915,0,0,0-.192.909c.393,1.166.907,3.12,1.392,4.9l.326.915c6.911-2.962,13.8-5.438,22.19-8.3-.121-.346-.2-.571-.2-.571-.228-.746-1.133-3.9-1.492-4.959a.973.973,0,0,0-1.208-.595c-3.536.936-16.083,5.595-20.423,7.416A1.082,1.082,0,0,0,54.02,146.023Z"/><path class="b" d="M245.7,32.289a.129.129,0,0,1,0-.252,18.153,18.153,0,0,0,3.658-1.41,9.23,9.23,0,0,0,4.16-4.281,14.485,14.485,0,0,0,1.211-4.027.129.129,0,0,1,.256,0,14.485,14.485,0,0,0,1.211,4.027,9.23,9.23,0,0,0,4.16,4.281,18.139,18.139,0,0,0,3.659,1.41.129.129,0,0,1,0,.252,18.079,18.079,0,0,0-3.659,1.41,9.23,9.23,0,0,0-4.16,4.281,14.488,14.488,0,0,0-1.211,4.026.129.129,0,0,1-.256,0,14.488,14.488,0,0,0-1.211-4.026,9.23,9.23,0,0,0-4.16-4.281A18.094,18.094,0,0,0,245.7,32.289Z"/><path class="b" d="M2.07,123.124a.128.128,0,0,1,0-.251,18.144,18.144,0,0,0,3.659-1.411,9.223,9.223,0,0,0,4.16-4.28,14.485,14.485,0,0,0,1.211-4.027.129.129,0,0,1,.256,0,14.418,14.418,0,0,0,1.211,4.027,9.219,9.219,0,0,0,4.16,4.28,18.159,18.159,0,0,0,3.658,1.411.128.128,0,0,1,0,.251,18.159,18.159,0,0,0-3.658,1.411,9.219,9.219,0,0,0-4.16,4.28,14.428,14.428,0,0,0-1.211,4.027.129.129,0,0,1-.256,0,14.5,14.5,0,0,0-1.211-4.027,9.223,9.223,0,0,0-4.16-4.28A18.144,18.144,0,0,0,2.07,123.124Z"/><path class="d" d="M13.411,16.007a.179.179,0,0,1,0-.35,25.214,25.214,0,0,0,5.09-1.963,12.833,12.833,0,0,0,5.787-5.955,20.088,20.088,0,0,0,1.685-5.6.18.18,0,0,1,.357,0,20.12,20.12,0,0,0,1.684,5.6A12.835,12.835,0,0,0,33.8,13.694a25.191,25.191,0,0,0,5.09,1.963.179.179,0,0,1,0,.35,25.246,25.246,0,0,0-5.09,1.962,12.839,12.839,0,0,0-5.788,5.955,20.127,20.127,0,0,0-1.684,5.6.18.18,0,0,1-.357,0,20.1,20.1,0,0,0-1.685-5.6A12.837,12.837,0,0,0,18.5,17.969,25.268,25.268,0,0,0,13.411,16.007Z"/><path class="d" d="M260.019,93.359a.247.247,0,0,1,0-.482,34.719,34.719,0,0,0,7.012-2.7,17.683,17.683,0,0,0,7.972-8.2,27.718,27.718,0,0,0,2.32-7.717.249.249,0,0,1,.492,0,27.651,27.651,0,0,0,2.32,7.717,17.683,17.683,0,0,0,7.972,8.2,34.711,34.711,0,0,0,7.011,2.7.246.246,0,0,1,0,.482,34.771,34.771,0,0,0-7.011,2.7,17.688,17.688,0,0,0-7.972,8.2,27.661,27.661,0,0,0-2.32,7.717.249.249,0,0,1-.492,0,27.728,27.728,0,0,0-2.32-7.717,17.688,17.688,0,0,0-7.972-8.2A34.779,34.779,0,0,0,260.019,93.359Z"/><path class="e" d="M14.825,14.593l-.142-.175v2.828l.142-.175-.883.514a19.96,19.96,0,0,0,9.41-5.026,15.264,15.264,0,0,0,2.854-4.22,21.751,21.751,0,0,0,.99-2.583c.133-.43.249-.866.354-1.3a7.729,7.729,0,0,1,.25-1.443L26.073,4h.157L24.5,3.009a6.284,6.284,0,0,1,.2,1.223c.1.44.212.876.34,1.308a21.34,21.34,0,0,0,1.053,2.8,15.385,15.385,0,0,0,2.855,4.22,19.97,19.97,0,0,0,9.409,5.026l-.882-.514.141.175V14.418l-.141.175.882-.515a19.972,19.972,0,0,0-9.409,5.027,15.274,15.274,0,0,0-2.855,4.22,21.858,21.858,0,0,0-.99,2.583q-.2.645-.353,1.3a7.7,7.7,0,0,1-.25,1.443l1.727-.99h-.157l1.727.99a6.261,6.261,0,0,1-.2-1.222q-.15-.66-.34-1.309a21.191,21.191,0,0,0-1.054-2.8,15.344,15.344,0,0,0-2.854-4.22,19.975,19.975,0,0,0-9.41-5.027c-2.491-.659-3.553,3.2-1.063,3.858,3.238.856,6.555,2.3,8.564,5.095a14.332,14.332,0,0,1,2.141,4.806c.428,1.65.662,4.448,3.178,3.755,1.871-.515,1.787-3.326,2.27-4.835a12.523,12.523,0,0,1,2.357-4.4,11.642,11.642,0,0,1,3.855-2.875,23.333,23.333,0,0,1,2.488-1.041c.905-.314,2.085-.416,2.716-1.2a2.081,2.081,0,0,0,0-2.828c-.633-.783-1.815-.885-2.716-1.2a22.837,22.837,0,0,1-2.488-1.04,11.655,11.655,0,0,1-3.855-2.875,12.734,12.734,0,0,1-2.426-4.612C28.453,3.033,28.559,0,26.151,0,23.805,0,23.882,2.85,23.4,4.477a13.028,13.028,0,0,1-2.364,4.68,11.3,11.3,0,0,1-3.764,2.917,23.266,23.266,0,0,1-2.7,1.146c-.9.313-2.086.418-2.716,1.2a2.081,2.081,0,0,0,0,2.828l.141.175a2.014,2.014,0,0,0,2.829,0A2.047,2.047,0,0,0,14.825,14.593Z"/><path class="e" d="M247.118,30.875l-.1-.126v2.828l.1-.126-.883.515a14.922,14.922,0,0,0,7.021-3.768,13.847,13.847,0,0,0,3.405-7.347l-.514.883.128-.111h-2.828l.128.111-.514-.883a13.847,13.847,0,0,0,3.405,7.347,14.918,14.918,0,0,0,7.021,3.768l-.883-.515.1.126V30.749l-.1.126.883-.515a14.914,14.914,0,0,0-7.021,3.768,13.847,13.847,0,0,0-3.405,7.347l.514-.883-.128.111h2.828l-.128-.111.514.883a13.847,13.847,0,0,0-3.405-7.347,14.918,14.918,0,0,0-7.021-3.768c-2.49-.662-3.553,3.2-1.063,3.857a10.632,10.632,0,0,1,5.563,3.077,8.047,8.047,0,0,1,1.395,2.514c.393,1.125.384,2.919,1.317,3.723a2.061,2.061,0,0,0,2.828,0c.931-.8.921-2.594,1.317-3.723a7.969,7.969,0,0,1,1.7-2.852,8.3,8.3,0,0,1,2.582-1.775,14.631,14.631,0,0,1,1.677-.673,3.793,3.793,0,0,0,1.981-.931,2.081,2.081,0,0,0,0-2.828c-.716-.885-2.46-1.051-3.49-1.524a8.568,8.568,0,0,1-2.75-1.855,7.933,7.933,0,0,1-1.643-2.688,13.782,13.782,0,0,1-.536-1.85,3.247,3.247,0,0,0-.841-2.037,2.061,2.061,0,0,0-2.828,0c-.931.8-.921,2.594-1.317,3.723a7.953,7.953,0,0,1-1.7,2.852,8.323,8.323,0,0,1-2.582,1.775,14.719,14.719,0,0,1-1.678.673,3.779,3.779,0,0,0-1.98.931,2.079,2.079,0,0,0,0,2.828l.1.126a2.014,2.014,0,0,0,2.829,0A2.047,2.047,0,0,0,247.118,30.875Z"/><path class="e" d="M261.434,91.945l-.174-.139.586,1.414v-.2l-.586,1.414.174-.14-.883.515c4.558-1.19,9.27-3.236,12.58-6.678a20.291,20.291,0,0,0,3.882-5.76,29.112,29.112,0,0,0,1.357-3.626c.169-.573.318-1.152.452-1.735a7.722,7.722,0,0,1,.366-1.932l-1.727.991h.216l-1.727-.991a6.72,6.72,0,0,1,.317,1.712c.13.585.275,1.165.44,1.74a28.624,28.624,0,0,0,1.326,3.636,20.5,20.5,0,0,0,3.974,5.965c3.31,3.443,8.021,5.488,12.58,6.678l-.883-.515.173.14-.585-1.414v.2l.585-1.414-.173.139.883-.514c-4.558,1.19-9.27,3.235-12.58,6.678a20.242,20.242,0,0,0-3.882,5.76,28.882,28.882,0,0,0-1.357,3.625c-.169.573-.319,1.153-.452,1.735a7.714,7.714,0,0,1-.366,1.932l1.727-.99h-.216l1.727.99a6.712,6.712,0,0,1-.317-1.712c-.13-.584-.275-1.164-.44-1.74a28.462,28.462,0,0,0-1.327-3.635,20.465,20.465,0,0,0-3.973-5.965c-3.31-3.443-8.021-5.488-12.58-6.678-2.492-.651-3.556,3.206-1.063,3.857,3.71.969,7.62,2.523,10.407,5.237a19.805,19.805,0,0,1,5.213,10.428,4.735,4.735,0,0,0,.938,2.632,2.22,2.22,0,0,0,3.2-.2,6.306,6.306,0,0,0,.876-2.87,28.444,28.444,0,0,1,.912-3.232,16.6,16.6,0,0,1,6.625-8.671,27.531,27.531,0,0,1,5.522-2.575c1.681-.592,5.1-1.148,3.936-3.789a3.052,3.052,0,0,0-2.3-1.52,29.991,29.991,0,0,1-3.072-1.068,22.248,22.248,0,0,1-5.174-2.775,17.775,17.775,0,0,1-6.013-9.419c-.5-1.757-.407-5.309-2.887-5.4-2.589-.093-2.5,3.181-2.983,4.967a17.584,17.584,0,0,1-6.9,10.39,26.64,26.64,0,0,1-6.041,2.849c-1.023.352-2.433.492-3.231,1.261a2.195,2.195,0,0,0,.086,3.241,2.062,2.062,0,0,0,2.829,0A2.016,2.016,0,0,0,261.434,91.945Z"/><path class="e" d="M3.485,121.71l-.1-.126v2.829l.1-.126L2.6,124.8a14.912,14.912,0,0,0,7.021-3.767,13.851,13.851,0,0,0,3.405-7.347l-.514.882.128-.11H9.814l.128.11-.514-.882a13.851,13.851,0,0,0,3.4,7.347,14.907,14.907,0,0,0,7.021,3.767l-.883-.514.1.126v-2.829l-.1.126.883-.514a14.916,14.916,0,0,0-7.021,3.767,13.851,13.851,0,0,0-3.4,7.347l.514-.882-.128.111h2.828l-.128-.111.514.882a13.858,13.858,0,0,0-3.405-7.347A14.907,14.907,0,0,0,2.6,121.2c-2.49-.662-3.553,3.2-1.063,3.857A10.632,10.632,0,0,1,7.1,128.13,8.03,8.03,0,0,1,8.5,130.643c.394,1.126.385,2.92,1.318,3.724a2.062,2.062,0,0,0,2.828,0c.931-.8.921-2.594,1.317-3.724a7.949,7.949,0,0,1,1.7-2.851,8.309,8.309,0,0,1,2.582-1.776,14.713,14.713,0,0,1,1.678-.672,3.786,3.786,0,0,0,1.98-.931,2.08,2.08,0,0,0,0-2.829c-.715-.885-2.459-1.05-3.489-1.524a8.54,8.54,0,0,1-2.751-1.855,7.916,7.916,0,0,1-1.642-2.687,13.824,13.824,0,0,1-.536-1.85,3.257,3.257,0,0,0-.841-2.038,2.063,2.063,0,0,0-2.828,0c-.931.8-.921,2.594-1.318,3.724a7.94,7.94,0,0,1-1.7,2.851,8.286,8.286,0,0,1-2.582,1.776,14.815,14.815,0,0,1-1.677.673,3.784,3.784,0,0,0-1.981.93,2.082,2.082,0,0,0,0,2.829l.1.126a2.014,2.014,0,0,0,2.829,0A2.049,2.049,0,0,0,3.485,121.71Z"/><path class="e" d="M197.771,389.985c.617,5.483.855,11,.935,16.516.037,2.572,4.037,2.58,4,0-.08-5.514-.318-11.033-.935-16.516a2.061,2.061,0,0,0-2-2,2.012,2.012,0,0,0-2,2Z"/><path class="e" d="M111.351,406.825c.153-4.968.421-9.933.91-14.88a2.014,2.014,0,0,0-2-2,2.044,2.044,0,0,0-2,2c-.489,4.947-.757,9.912-.91,14.88a2,2,0,0,0,4,0Z"/><path class="b" d="M146.755,298.053c-4.311-11.145-10.181-26.414-14.4-38.364l1.621.435a70.734,70.734,0,0,0,16.141,2.319c5.147.013,12.471-.8,17.5-2.8l.585-.229c-5.566,18.551-14.785,42.829-17.01,48.347C150.167,305.084,148.6,302.834,146.755,298.053Z"/><path class="e" d="M185.212,193.767a2.934,2.934,0,0,1,4.2.552,5.865,5.865,0,0,1,.576,2.988,17.285,17.285,0,0,1-.247,3.548c-.771,4.221-2.945,9.257-7.629,10.1a2.017,2.017,0,0,0-1.4,2.46,2.044,2.044,0,0,0,2.46,1.4c6.929-1.242,10.23-9.079,10.751-15.358.264-3.182.043-6.87-2.715-8.94a7.054,7.054,0,0,0-8.825.428,2.015,2.015,0,0,0,0,2.828,2.043,2.043,0,0,0,2.828,0Z"/><path class="e" d="M180.59,209.145a19.137,19.137,0,0,1-1.111,5.169c-.1.3-.2.6-.3.905-.088.259-.09.241.012,0-.146.351-.315.694-.485,1.034a42.937,42.937,0,0,1-3.764,6.048c-3.259,4.458-7.676,9.171-13.249,10.478-2.5.587-1.444,4.444,1.064,3.857,6.534-1.532,11.611-6.873,15.461-12.073,3.35-4.526,6.141-9.653,6.375-15.413.1-2.574-3.9-2.569-4,0Z"/><path class="e" d="M117.877,190.939a7.057,7.057,0,0,0-8.826-.428c-2.758,2.066-2.978,5.762-2.714,8.94.521,6.279,3.823,14.116,10.751,15.358a2.056,2.056,0,0,0,2.46-1.4,2.017,2.017,0,0,0-1.4-2.46c-4.684-.84-6.858-5.877-7.629-10.1a17.2,17.2,0,0,1-.25-3.353,6.724,6.724,0,0,1,.5-3.049,2.918,2.918,0,0,1,4.28-.686,2.053,2.053,0,0,0,2.828,0,2.015,2.015,0,0,0,0-2.828Z"/><path class="e" d="M115.893,208.793a38.745,38.745,0,0,0,8.376,18.723c4.619,5.413,10.715,9.348,17.879,10.115a2.014,2.014,0,0,0,2-2,2.045,2.045,0,0,0-2-2c-6.218-.666-11.433-4.588-15.326-9.269-3.934-4.73-6.027-10.639-7.072-16.632a2.016,2.016,0,0,0-2.46-1.4,2.046,2.046,0,0,0-1.4,2.46Z"/><path class="e" d="M172.949,145.806a22.851,22.851,0,0,1,5.133,4.179,40,40,0,0,1,4.712,5.327,44.9,44.9,0,0,1,6.34,14.024,57.671,57.671,0,0,1,1.674,13.55c.154,5.7.125,11.4.416,17.094a129.865,129.865,0,0,0,1.882,16.6c.46,2.529,4.315,1.458,3.857-1.063-1.941-10.669-1.863-21.447-2.145-32.246a64.116,64.116,0,0,0-1.724-14.6,49.221,49.221,0,0,0-6.321-14.593,41.935,41.935,0,0,0-5.579-6.628,28.361,28.361,0,0,0-6.226-5.089c-2.254-1.248-4.274,2.206-2.019,3.454Z"/><path class="e" d="M106.563,220.419a177.633,177.633,0,0,0,1.664-25.489,140.948,140.948,0,0,1,.421-14.224,67.255,67.255,0,0,1,2.36-12.061c1.828-6.184,4.736-12.225,9.274-16.884,5.069-5.2,12.154-8.666,19.1-10.52a47.686,47.686,0,0,1,15.481-1.249A37.626,37.626,0,0,1,166,142.382a2.016,2.016,0,0,0,2.461-1.4,2.045,2.045,0,0,0-1.4-2.46,48.127,48.127,0,0,0-24.835-2,48.7,48.7,0,0,0-22.566,10.366c-11.992,10-15.329,27.491-15.485,42.289-.106,10.093.019,20.159-1.47,30.176a2.066,2.066,0,0,0,1.4,2.461,2.015,2.015,0,0,0,2.46-1.4Z"/><path class="e" d="M162.847,234.089a35.52,35.52,0,0,0,.146,4.413,9.074,9.074,0,0,0,1.222,4.111c1.687,2.436,4.383,4.184,6.795,5.82a2.012,2.012,0,0,0,2.736-.717,2.05,2.05,0,0,0-.717-2.737c-1.147-.777-2.283-1.578-3.226-2.35-.46-.377-.911-.767-1.338-1.181-.186-.181-.369-.366-.543-.559-.085-.093-.166-.213-.259-.3-.188-.173.23.363.006,0-.094-.151-.18-.344-.288-.482s.1.336.03.052c-.039-.159-.107-.313-.152-.471-.085-.294-.153-.592-.209-.892-.033-.171-.063-.343-.086-.516.03.22,0-.012-.007-.1-.124-1.362-.118-2.727-.11-4.094a2,2,0,0,0-4,0Z"/><path class="e" d="M133.867,234.235c.008,1.341,0,2.673-.115,4.009-.029.347.01-.011-.021.188-.021.135-.044.269-.07.4a9.494,9.494,0,0,1-.233.966c-.045.15-.12.307-.152.458.019-.09.167-.292.044-.109-.052.078-.1.166-.145.248-.087.156-.076.313.049-.041-.125.352-.7.769-.973,1.014q-.34.31-.7.6c-.1.083-.2.165-.306.247-.5.4.143-.1-.163.125-1.192.889-2.436,1.7-3.7,2.489a2,2,0,1,0,2.019,3.454c1.349-.84,2.684-1.711,3.946-2.678a14.874,14.874,0,0,0,3.1-2.935,8.092,8.092,0,0,0,1.22-3.75,33.532,33.532,0,0,0,.2-4.689,2,2,0,0,0-4,0Z"/><path class="e" d="M133.443,262.052a65.825,65.825,0,0,0,17.531,2.385,49.938,49.938,0,0,0,17.172-2.866,2.059,2.059,0,0,0,1.4-2.46,2.015,2.015,0,0,0-2.461-1.4c-10.242,3.981-22.143,3.234-32.576.481-2.491-.657-3.554,3.2-1.063,3.857Z"/><path class="e" d="M141.849,320.066c-.7.3-.086.044.088-.012a3.439,3.439,0,0,1,.521-.126l-.532.072a2.57,2.57,0,0,1,.568.012l-.532-.072a3.674,3.674,0,0,1,.488.1,1.95,1.95,0,0,0,.282.1c-.031.014-.452-.213-.2-.082.147.078.287.161.429.248.313.193-.359-.324-.09-.074.06.056.123.108.182.165s.115.116.17.177.248.3.028.024-.025-.021.01.036.083.137.12.208c.088.168.056.3-.062-.173.019.075.055.149.078.224a3.96,3.96,0,0,1,.115.559l-.071-.531a3.772,3.772,0,0,1,.008.843l.072-.531a6.22,6.22,0,0,1-.16.6c-.045.17.248-.516.111-.264-.021.038-.038.079-.058.118-.041.078-.084.154-.13.229s-.285.394-.031.068.034-.048-.032.026c-.134.149-.288.271-.431.411s.415-.3.248-.19c-.037.024-.071.053-.107.078-.082.058-.166.112-.252.164-.163.1-.334.173-.5.26s.488-.183.293-.125c-.042.012-.083.031-.124.046-.094.033-.188.063-.284.09a4.516,4.516,0,0,1-.577.122l.532-.072A3.935,3.935,0,0,1,141,322.8l.532.072a3.61,3.61,0,0,1-.426-.086c-.228-.063-.561-.278.075.058-.118-.062-.237-.115-.35-.187-.171-.108-.265-.283.18.153-.044-.043-.1-.079-.141-.121-.094-.087-.169-.189-.259-.278.43.425.254.342.141.165-.042-.067-.082-.136-.119-.206s-.06-.127-.091-.19c.291.584.153.372.1.2a4.162,4.162,0,0,1-.154-.651l.072.532a3.32,3.32,0,0,1-.016-.765l-.071.531a3.336,3.336,0,0,1,.1-.475.958.958,0,0,1,.09-.269c-.045.063-.182.4-.059.145a6.383,6.383,0,0,1,.472-.828c.043-.062.194-.261-.013.009-.223.29-.017.031.027-.018.1-.105.2-.2.3-.3.158-.16-.37.258-.181.134.068-.044.132-.092.2-.135a3.986,3.986,0,0,1,.444-.232,2,2,0,0,0,.919-1.195,2.042,2.042,0,0,0-.2-1.541,2.021,2.021,0,0,0-1.2-.919,2.292,2.292,0,0,0-1.541.2,5.615,5.615,0,0,0-2.5,2.436,5.521,5.521,0,0,0-.615,4.179,4.719,4.719,0,0,0,3.751,3.5,6.4,6.4,0,0,0,5.126-1.459,5.037,5.037,0,0,0,1.386-1.8,5.1,5.1,0,0,0,.231-3.776,5.451,5.451,0,0,0-2.749-3.132,5.352,5.352,0,0,0-2.364-.571,6.051,6.051,0,0,0-2.263.626,2,2,0,0,0-.919,1.195,2.043,2.043,0,0,0,.2,1.541,2.017,2.017,0,0,0,1.195.919A2.341,2.341,0,0,0,141.849,320.066Z"/><path class="e" d="M170.3,243.425c-1.407,7.949-4.161,15.74-6.676,23.387-3.088,9.39-6.37,18.718-9.746,28.008q-1.938,5.337-3.941,10.652a2.016,2.016,0,0,0,1.4,2.46,2.044,2.044,0,0,0,2.46-1.4c6.32-16.653,12.379-33.5,17.44-50.58a105.2,105.2,0,0,0,2.923-11.467,2.057,2.057,0,0,0-1.4-2.46,2.018,2.018,0,0,0-2.46,1.4Z"/><path class="e" d="M125.451,244.587a152.032,152.032,0,0,0,5.927,17.854c3,8.079,6.148,16.1,9.318,24.113,2.618,6.617,5.323,13.205,7.844,19.86A51.576,51.576,0,0,1,151.6,318.59c.416,3.66-.126,7.482-.369,11.139-.272,4.108-.486,8.194-1.041,12.275-.749,5.5-1.651,10.987-2.449,16.484a2.067,2.067,0,0,0,1.4,2.461,2.015,2.015,0,0,0,2.46-1.4c1.268-8.735,2.842-17.423,3.4-26.239.255-4.046.633-8.1.724-12.153.1-4.333-1.121-8.807-2.359-12.925-.9-2.99-2.12-5.876-3.266-8.777Q148,294.174,145.9,288.9c-3.2-8.079-6.4-16.164-9.462-24.3-2.6-6.895-5.443-13.885-7.131-21.076-.589-2.5-4.447-1.444-3.858,1.064Z"/><path class="e" d="M171.223,245.684a44.375,44.375,0,0,1,7.476,4.783c1.2.926,2.363,1.9,3.478,2.929q.765.7,1.493,1.441a6.292,6.292,0,0,1,1.151,1.35v-1.063c-.116.64-1.343,1.65-1.792,2.179q-1.062,1.252-2.116,2.514c-.932,1.117-1.887,2.228-2.741,3.406a2.033,2.033,0,0,0,.718,2.737,19.171,19.171,0,0,1,2.63,2.086c.057.056.364.25.2.188l-.036-.054q.281.478-.08-.477c-.126-.161.289-.276-.044.031-.027.025,1.207-2.54-.132.249-.289.6-.65,1.177-.986,1.754-1.082,1.855-2.218,3.679-3.348,5.5q-5.6,9.045-11.418,17.951c-1.867,2.846-3.748,5.686-5.738,8.448a2.016,2.016,0,0,0,.718,2.737,2.044,2.044,0,0,0,2.736-.718c4.169-5.785,7.981-11.839,11.8-17.858,3.032-4.778,6.124-9.544,8.94-14.454,1.138-1.986,2.209-3.929.451-5.887a20.125,20.125,0,0,0-3.674-2.954l.718,2.736c.107-.148.235-.243.042-.063a5.06,5.06,0,0,0,.408-.512c.367-.455.739-.906,1.111-1.356q1.324-1.6,2.67-3.179c.978-1.153,2.515-2.426,2.821-3.945.323-1.606-.832-2.762-1.843-3.828a49.091,49.091,0,0,0-13.593-10.129c-2.3-1.13-4.332,2.318-2.019,3.454Z"/><path class="e" d="M126.371,242.328A38.815,38.815,0,0,0,113.725,252.9a3.2,3.2,0,0,0-.478,3.934,36.908,36.908,0,0,0,2.769,3.286q1.254,1.482,2.493,2.976c.3.367.605.734.9,1.105a4.842,4.842,0,0,0,.409.513c-.194-.18-.064-.083.042.064l.718-2.737a28.777,28.777,0,0,0-3.679,2.4c-1.506,1.274-1.585,2.867-.869,4.62a47.54,47.54,0,0,0,3.467,6.311q5.938,9.909,12.228,19.607c2.014,3.113,4.039,6.227,6.208,9.236a2.059,2.059,0,0,0,2.737.717,2.015,2.015,0,0,0,.717-2.736c-4-5.547-7.624-11.38-11.257-17.171-3.2-5.1-6.444-10.209-9.4-15.46-.174-.308-.346-.616-.508-.929a7.654,7.654,0,0,1-.635-1.46c-.08-.289-.077-.1-.041-.095q.023-.425-.081.137a.7.7,0,0,1-.194.468A34.343,34.343,0,0,1,122.6,265.5a2.016,2.016,0,0,0,.717-2.736c-.855-1.18-1.812-2.293-2.745-3.411q-.988-1.185-1.988-2.363-.522-.615-1.045-1.229c-.236-.276-.815-.761-.881-1.083v1.063c.084-.614,1.455-1.846,2.041-2.464q1.458-1.536,3.052-2.933a30.945,30.945,0,0,1,6.637-4.557c2.308-1.141.284-4.592-2.018-3.454Z"/><path class="e" d="M192.221,230.944c6.834-18.64,11.752-37.987,16.6-57.219,1.872-7.431,3.662-14.9,5.882-22.233q.69-2.275,1.449-4.53a5.317,5.317,0,0,1,.378-1.094c.018-.028-.322-.117.123.061a24.467,24.467,0,0,0,3.746.771c4.95,1.074,9.848,2.366,14.722,3.74q.93.263,1.859.528c.311.089,1.531.238,1.652.473-.262-.509-.337.441-.375.6-.167.7-.321,1.394-.482,2.091q-.792,3.45-1.578,6.9-1.226,5.388-2.431,10.781c-1.382,6.169-2.754,12.341-4.171,18.5-3.139,13.652-6.493,27.246-9.943,40.822-3.284,12.923-6.649,25.827-9.809,38.781q-.369,1.515-.73,3.033c-.593,2.5,3.263,3.571,3.857,1.063,3.02-12.753,6.37-25.432,9.6-38.132,3.59-14.1,7.114-28.214,10.392-42.391,1.5-6.47,2.943-12.951,4.393-19.431q1.211-5.415,2.438-10.825.785-3.46,1.579-6.918c.518-2.258,1.831-5.165.363-7.278a4.92,4.92,0,0,0-2.99-1.728q-1.968-.564-3.941-1.115c-2.473-.689-4.953-1.354-7.444-1.976q-3.861-.962-7.758-1.771c-2.268-.467-4.925-1.2-6.409,1.181a22.063,22.063,0,0,0-1.771,4.926q-.764,2.412-1.452,4.848c-1.046,3.666-2,7.357-2.94,11.051-5,19.654-9.806,39.405-16.282,58.639q-1.149,3.408-2.385,6.785c-.887,2.421,2.977,3.465,3.857,1.064Z"/><path class="e" d="M90.847,276.292c2.278,7.928,4.8,15.784,7.063,23.716,1.1,3.866,2.13,7.754,3.054,11.668,1.061,4.493,2.337,9.12,2.581,13.745a14.8,14.8,0,0,1-.1,2.463c-.009.085-.021.17-.031.255-.04.309.045-.32,0,0-.032.222-.065.445-.1.666-.089.564-.187,1.125-.29,1.686-.5,2.733-1.119,5.446-1.764,8.149q-2.214,9.279-4.921,18.437c-1.781,6.048-4.071,11.834-6.418,17.683-.746,1.859-1.448,3.735-2.081,5.637-.645,1.942-1.821,4.353-1.153,6.409.9,2.772,4.544,3.084,6.987,3.48a121.215,121.215,0,0,0,18.735,1.356,97.678,97.678,0,0,0,18.711-1.356,20.182,20.182,0,0,0,6.549-2.194,19.314,19.314,0,0,0,6.309-6.6c3.42-5.5,5.239-11.95,6.745-18.194.3-1.249.587-2.5.876-3.752.577-2.506-3.278-3.575-3.857-1.064-1.3,5.645-2.6,11.387-4.97,16.7a25.61,25.61,0,0,1-4.681,7.478,11.492,11.492,0,0,1-3.017,2.3c-.075.039-.88.4-.463.228-.194.079-.392.152-.59.223-.467.166-.941.31-1.419.441-5.347,1.466-11.089,1.664-16.6,1.768a136.667,136.667,0,0,1-18.725-.834A26.215,26.215,0,0,1,90.75,385.6a2.112,2.112,0,0,1-.441-.246c.3.221.11.274.307-.424.31-1.1.652-2.184,1.008-3.266.612-1.855,1.29-3.688,2.014-5.5,2.276-5.714,4.569-11.352,6.325-17.253q2.618-8.8,4.791-17.726c1.143-4.681,2.477-9.532,2.791-14.361.241-3.7-.8-7.523-1.575-11.112q-1.3-6.063-2.9-12.058c-1.975-7.392-4.3-14.684-6.488-22.014q-.956-3.2-1.878-6.41c-.71-2.47-4.571-1.419-3.857,1.063Z"/><path class="e" d="M94.7,275.229c-4.047-12.717-8.566-25.294-12.861-37.928-2.541-7.475-5.076-14.953-7.542-22.453-2.822-8.583-5.4-17.245-8.051-25.88-2.324-7.558-4.669-15.109-6.936-22.684-.8-2.666-1.584-5.336-2.339-8.014-.324-1.15-.564-2.358-.959-3.484-.136-.387-.191-.17.162-.148.44.027,1.219-.521,1.653-.7q2.136-.891,4.292-1.734c2.624-1.028,5.266-2.007,7.918-2.957q2.05-.735,4.107-1.449,1.125-.392,2.252-.779c.472-.162,1.635-.312,1.938-.655-.223.252-.166-.463-.312-.114-.044.107.163.552.2.662q.2.671.4,1.342.418,1.385.851,2.767.921,2.958,1.878,5.906c3.206,9.938,6.479,19.854,9.538,29.839a531.118,531.118,0,0,0,18.72,51.717c.541,1.277,1.093,2.551,1.67,3.813a2.015,2.015,0,0,0,2.736.718,2.049,2.049,0,0,0,.718-2.737c-3.288-7.194-6.1-14.695-8.9-22.143-3.4-9.059-6.688-18.178-9.561-27.42-3.274-10.528-6.581-21.039-9.991-31.525-1.3-3.99-2.59-7.983-3.806-12-.682-2.252-1.378-4.894-4.3-4.818a15.1,15.1,0,0,0-4.206,1.259q-2.4.829-4.79,1.683c-2.723.974-5.435,1.978-8.128,3.033q-1.959.768-3.9,1.573c-1.284.532-3.018.968-4.034,1.947-1.662,1.6-1.078,3.586-.546,5.519q.5,1.811,1.016,3.614c1.873,6.534,3.881,13.029,5.877,19.527,5.194,16.906,10.379,33.792,16.044,50.547,4.826,14.274,9.808,28.5,14.545,42.8.266.805.531,1.611.789,2.419.778,2.444,4.641,1.4,3.857-1.063Z"/><path class="e" d="M126.262,243.963c-.674-.723-1.32-1.47-1.956-2.226a13.478,13.478,0,0,0-1.7-1.93,3.329,3.329,0,0,0-2.077-.833,4.807,4.807,0,0,0-2.015.564c-.856.376-1.688.8-2.524,1.22a2.013,2.013,0,0,0-.718,2.736,2.05,2.05,0,0,0,2.737.718c.714-.356,1.424-.721,2.15-1.053.189-.086.379-.173.57-.253.26-.11-.325.135-.08.047s-.452-.017-.12.021c-.056-.006-.473-.1-.222-.011l-.293-.121q.193.121-.036-.047c-.275-.242.091.1.153.174,1.119,1.259,2.15,2.59,3.3,3.822a2.016,2.016,0,0,0,2.828,0,2.041,2.041,0,0,0,0-2.828Z"/><path class="e" d="M177.553,244.131c.206-.272.62-.79.978-1.212q.635-.749,1.309-1.46a24.209,24.209,0,0,1,2.767-2.62c-.2.152.063-.065.089-.048l-.738.085.209.059c-.249-.153.428.182.373.159.173.072.345.148.521.214a7.581,7.581,0,0,0,2.007.4,7.844,7.844,0,0,0,4.144-.884,2.012,2.012,0,0,0,.718-2.736,2.051,2.051,0,0,0-2.737-.718c-.3.148.014.016-.17.084-.126.046-.254.088-.384.125-.162.046-.326.084-.491.118-.126.026-.287.027-.07.012a6.81,6.81,0,0,1-1.01,0c.217.017.056.013-.069-.014-.165-.035-.329-.073-.491-.12s-.322-.1-.479-.163c.2.079-.056-.031-.114-.057a4.871,4.871,0,0,0-1.372-.4,3.548,3.548,0,0,0-2.765,1.057,36.408,36.408,0,0,0-5.679,6.1,2.007,2.007,0,0,0,.718,2.737,2.06,2.06,0,0,0,2.736-.718Z"/><path class="e" d="M144.571,169.106c-3.768,5.765-9.175,10.264-14.9,13.993a88.787,88.787,0,0,1-13.723,7.012,2.067,2.067,0,0,0-1.4,2.46,2.012,2.012,0,0,0,2.46,1.4,90.909,90.909,0,0,0,15.036-7.648c6.179-4.071,11.9-8.959,15.977-15.195,1.412-2.161-2.05-4.167-3.454-2.019Z"/><path class="e" d="M164.373,164.373a37.88,37.88,0,0,1-9.213,7.516,57.467,57.467,0,0,1-12.211,5.762c-2.435.8-1.393,4.664,1.063,3.857a62,62,0,0,0,13.167-6.165A41.427,41.427,0,0,0,167.2,167.2a2.053,2.053,0,0,0,0-2.828,2.016,2.016,0,0,0-2.828,0Z"/><path class="e" d="M184.808,190.626c-4.927-2.508-8.479-6.869-11.414-11.446a38.283,38.283,0,0,1-5.422-13.31c-.508-2.521-4.364-1.454-3.857,1.064a41.652,41.652,0,0,0,6.072,14.646c3.253,4.981,7.212,9.756,12.6,12.5,2.289,1.166,4.316-2.284,2.019-3.454Z"/><path class="e" d="M147.715,361.77l4.56,10.472c2.015,4.625,3.941,9.437,7.8,12.874,4.912,4.372,11.563,5.719,17.929,6.215a112.92,112.92,0,0,0,21.456-.714c3.187-.363,6.367-.805,9.528-1.345,2.591-.442,5.57-.6,7.742-2a6.028,6.028,0,0,0,3.023-4.887,10.7,10.7,0,0,0-.833-3.247c-.386-1.153-.777-2.3-1.183-3.451-1.27-3.586-2.683-7.117-4.2-10.607-2.773-6.385-5.617-12.681-7.821-19.3a120.452,120.452,0,0,1-3.843-13.241,30.7,30.7,0,0,1-.115-11.371c1.11-6.978,2.931-13.853,4.639-20.7,1.832-7.35,3.719-14.686,5.513-22.045q.537-2.2,1.054-4.407c.584-2.5-3.272-3.573-3.857-1.063-3.132,13.423-6.888,26.7-9.85,40.163a89.977,89.977,0,0,0-1.924,11.423,34.935,34.935,0,0,0,1.345,11.861,158.838,158.838,0,0,0,7.958,22.907c2.68,6.2,5.47,12.3,7.678,18.691.377,1.089.736,2.185,1.113,3.275.281.809.5,1.317-.1,2-.9,1.033-2.192,1.14-3.447,1.4-2.517.52-5.055.944-7.6,1.316a137.627,137.627,0,0,1-20.325,1.566c-5.974-.019-12.535-.319-17.937-3.161-4.852-2.552-7.239-7.154-9.347-12l-5.074-11.65-.435-1a2.012,2.012,0,0,0-2.736-.717,2.051,2.051,0,0,0-.718,2.736Z"/><path class="f" d="M64.339,25.052c.138,10.263.873,92.524.937,97.6,14.8-.195,150.987-1.745,161.467-1.745-.186-13.776-1.66-91.681-1.734-97.143C214.988,23.9,78.3,25.052,64.339,25.052Z"/><path class="g" d="M79.772,93.346a31.31,31.31,0,0,0,.084,7.539,3.541,3.541,0,0,0,3.059,3,29.526,29.526,0,0,0,8.47-.082,3.312,3.312,0,0,0,3-3.081,35.942,35.942,0,0,0-.128-7.8,3.522,3.522,0,0,0-3.046-2.985,24.649,24.649,0,0,0-8.427.043A3.637,3.637,0,0,0,79.772,93.346Z"/><path class="e" d="M86.429,77.656c0,2.021.123,4.04.078,6.062a2.017,2.017,0,0,0,2,2,2.038,2.038,0,0,0,2-2c.045-2.022-.075-4.041-.078-6.062a2,2,0,0,0-4,0Z"/><path class="e" d="M62.339,25.052c.161,12.033.246,24.067.36,36.1q.228,24.33.452,48.659c.04,4.279.072,8.558.125,12.836a2.028,2.028,0,0,0,2,2q10.385-.136,20.767-.248,18.7-.218,37.406-.427,21.542-.243,43.081-.478,18.933-.207,37.864-.4c7.119-.072,14.239-.158,21.359-.19l.99,0a2.028,2.028,0,0,0,2-2c-.169-12.471-.422-24.941-.648-37.411q-.427-23.528-.863-47.055c-.077-4.226-.165-8.451-.223-12.677a2.028,2.028,0,0,0-2-2c-6.179.082-12.358.124-18.536.18q-18.2.163-36.4.316-21.478.183-42.956.355-19.261.154-38.524.3c-7.672.055-15.344.12-23.017.142l-1.235,0c-2.574,0-2.578,4,0,4,6.8,0,13.6-.069,20.4-.117q18.68-.131,37.358-.284,21.5-.171,43.008-.353,18.84-.157,37.679-.325,10.638-.094,21.275-.2l.954-.011-2-2c.143,10.491.375,20.981.568,31.471q.449,24.357.885,48.713c.1,5.653.205,11.3.281,16.959l2-2c-6.243,0-12.486.094-18.729.156q-18.18.178-36.361.38-21.51.233-43.021.475-19.4.217-38.792.442-11.633.135-23.264.276l-1.3.016,2,2c-.135-10.8-.206-21.6-.307-32.394Q66.74,65.4,66.5,40.548c-.051-5.166-.094-10.331-.163-15.5C66.3,22.48,62.3,22.472,62.339,25.052Z"/><path class="e" d="M193.011,40.293c-4.327,4.262-8.3,8.848-12.465,13.263a2,2,0,1,0,2.828,2.828c4.166-4.415,8.138-9,12.466-13.262a2,2,0,1,0-2.829-2.829Z"/><path class="e" d="M194.539,43.978l.282.215c.292.223-.243-.188-.158-.122l.26.2q.611.474,1.219.95,1.693,1.323,3.382,2.652,3.72,2.923,7.431,5.856,1.219.963,2.435,1.93a2.061,2.061,0,0,0,2.828,0,2.014,2.014,0,0,0,0-2.829c-4.307-3.446-8.654-6.844-13-10.243-.884-.691-1.766-1.387-2.661-2.064a2.011,2.011,0,0,0-2.736.718,2.049,2.049,0,0,0,.717,2.736Z"/><path class="e" d="M191.428,54.48c2.766-.367,5.556-.52,8.33-.817a2.164,2.164,0,0,0,1.414-.586,2,2,0,0,0-1.414-3.414c-2.774.3-5.564.45-8.33.817a2.207,2.207,0,0,0-1.415.586,2.032,2.032,0,0,0-.585,1.414c.043.966.889,2.148,2,2Z"/><path class="e" d="M187.7,58.316c.214,2.751.491,5.5.848,8.232a2.2,2.2,0,0,0,.586,1.414,2.033,2.033,0,0,0,1.414.586c.968-.044,2.145-.889,2-2-.357-2.736-.634-5.481-.848-8.232a2,2,0,0,0-4,0Z"/><path class="e" d="M190.276,60.721c3.477-.448,6.989-.677,10.486-.9.441-.027.13-.026-.133-.14.191.113.158.086-.1-.082a1.125,1.125,0,0,1-.365-.864c.019.34.039-.141.011-.107a.648.648,0,0,0-.045.193c-.13.5-.212,1.013-.318,1.517a43.194,43.194,0,0,1-1.032,4.261,2.017,2.017,0,0,0,1.4,2.46,2.044,2.044,0,0,0,2.46-1.4c.384-1.207.649-2.453.913-3.691A28.64,28.64,0,0,0,204.149,59a2.888,2.888,0,0,0-1.332-2.663,4.319,4.319,0,0,0-2.8-.463q-2.485.162-4.968.368c-1.594.134-3.19.275-4.777.48a2.054,2.054,0,0,0-2,2c.044.969.889,2.143,2,2Z"/><path class="e" d="M190.693,68.167c3.489-.267,6.981-.5,10.472-.725a2,2,0,1,0,0-4c-3.491.227-6.983.458-10.472.725a2,2,0,0,0,0,4Z"/><path class="e" d="M181.563,82.388c4.058-.823,7.855-1.29,11.92-1.755a2.05,2.05,0,0,0,2-2c-.044-.982-.887-2.128-2-2-4.346.5-8.694,1.028-12.983,1.9a2.011,2.011,0,0,0-1.4,2.46,2.049,2.049,0,0,0,2.46,1.4Z"/><path class="e" d="M199.716,79.074c3.037-.363,6.071-.734,9.12-.989a2,2,0,0,0,0-4c-3.049.255-6.083.626-9.12.989a2.051,2.051,0,0,0-2,2c.044.978.887,2.133,2,2Z"/><path class="e" d="M185.83,73.958c-.311,8.4-.461,16.813-.652,25.221-.058,2.575,3.942,2.574,4,0,.191-8.408.341-16.817.652-25.221.1-2.574-3.9-2.57-4,0Z"/><path class="e" d="M185.891,80.12c-1.164,1.7-2.38,3.364-3.627,5-.662.871-1.005,1.314-1.752,2.263q-.992,1.26-2,2.509a2.051,2.051,0,0,0,0,2.829,2.023,2.023,0,0,0,2.829,0c2.77-3.449,5.5-6.937,8-10.587a2.012,2.012,0,0,0-.718-2.737,2.049,2.049,0,0,0-2.736.718Z"/><path class="e" d="M187.647,84.565c.63.614,1.206,1.285,1.777,1.952.63.737,1.249,1.485,1.842,2.252l-.313-.4.029.038a2.245,2.245,0,0,0,1.2.919,2.043,2.043,0,0,0,1.541-.2,2.017,2.017,0,0,0,.919-1.2,1.926,1.926,0,0,0-.2-1.541q-1.04-1.35-2.142-2.647c-.584-.684-1.173-1.372-1.818-2a2.075,2.075,0,0,0-1.414-.586,2.037,2.037,0,0,0-1.415.586,2.013,2.013,0,0,0-.585,1.414,2.059,2.059,0,0,0,.585,1.414Z"/><path class="e" d="M198.859,73.238c-.764,1.27-1.589,2.5-2.458,3.7q-.327.453-.664.9c-.1.139-.214.275-.316.415.06-.082.235-.3.075-.1-.067.084-.132.169-.2.253q-.671.849-1.38,1.669a2,2,0,0,0,2.828,2.828,55.046,55.046,0,0,0,5.567-7.652,2,2,0,0,0-3.453-2.019Z"/><path class="e" d="M207.109,75.075c-1.14,1.567-2.236,3.171-3.449,4.683-1.305,1.628-2.767,3.113-4.219,4.609a86.215,86.215,0,0,1-8.433,7.723,2.01,2.01,0,0,0,0,2.828,2.05,2.05,0,0,0,2.828,0,87.628,87.628,0,0,0,8.637-7.933,62.55,62.55,0,0,0,4.212-4.644c1.35-1.708,2.6-3.488,3.878-5.247a2.014,2.014,0,0,0-.717-2.736,2.046,2.046,0,0,0-2.737.717Z"/><path class="e" d="M197.216,82.354c2.112,1.392,4.225,2.778,6.283,4.249,2.336,1.67,4.437,3.155,6.535,4.983a2.05,2.05,0,0,0,2.828,0,2.019,2.019,0,0,0,0-2.829A125.9,125.9,0,0,0,199.235,78.9a2,2,0,0,0-2.019,3.454Z"/><path class="e" d="M195.441,92.317c.182,2.336.417,4.668.72,6.992a2.2,2.2,0,0,0,.586,1.415,2,2,0,0,0,2.828,0,1.915,1.915,0,0,0,.586-1.415c-.3-2.324-.538-4.656-.72-6.992a2,2,0,1,0-4,0Z"/><path class="e" d="M197.93,94.661c2.954-.381,5.937-.575,8.908-.761.471-.029-.069-.054-.265-.16q.276.164-.143-.117a1.256,1.256,0,0,1-.4-.947c.011.331.051-.23.02-.171a.909.909,0,0,0-.038.164c-.11.424-.18.861-.27,1.289a36.464,36.464,0,0,1-.877,3.619,2.018,2.018,0,0,0,1.4,2.461,2.044,2.044,0,0,0,2.46-1.4c.326-1.026.551-2.084.775-3.136a24.192,24.192,0,0,0,.517-2.608,2.754,2.754,0,0,0-1.281-2.522,3.94,3.94,0,0,0-2.527-.435q-2.111.139-4.22.313c-1.354.114-2.71.234-4.058.408a2.2,2.2,0,0,0-1.414.585,2.034,2.034,0,0,0-.586,1.415c.044.969.889,2.143,2,2Z"/><path class="e" d="M198.375,100.834c2.931-.2,5.869-.37,8.805-.463a2,2,0,0,0,0-4c-2.936.093-5.874.262-8.805.463a2,2,0,0,0,0,4Z"/><path class="e" d="M167.581,84.727c.117-13.433-.151-26.858-.191-40.291-.008-2.573-4.008-2.578-4,0,.04,13.433.308,26.858.191,40.291-.022,2.575,3.978,2.577,4,0Z"/><path class="e" d="M133.328,78.721c0,5.5-.184,10.986.027,16.482a2,2,0,0,0,4,0c-.211-5.5-.03-10.985-.027-16.482,0-2.574-4-2.578-4,0Z"/><path class="e" d="M150.406,81.629c2.574,0,2.578-4,0-4s-2.578,4,0,4Z"/><path class="e" d="M148.471,48.377c.074,4.538-.021,9.071-.116,13.608-.075,3.605.139,7.2.137,10.8,0,2.574,4,2.578,4,0,0-3.6-.212-7.195-.137-10.8.095-4.537.19-9.07.116-13.608-.042-2.571-4.042-2.579-4,0Z"/><path class="e" d="M133.248,43.384c-.219,9.313.032,18.622.189,27.934.043,2.572,4.043,2.58,4,0-.157-9.312-.408-18.621-.189-27.934.061-2.575-3.939-2.574-4,0Z"/><path class="e" d="M118.283,46.457c.082,5.606-.1,11.223-.169,16.829-.093,7.543.02,15.086,0,22.629-.007,2.574,3.993,2.577,4,0,.02-7.543-.093-15.086,0-22.629.069-5.606.251-11.223.169-16.829-.038-2.572-4.038-2.58-4,0Z"/><path class="e" d="M103.1,49.075c-.163,2.367-.051,4.74,0,7.109.05,2.276-.032,4.548-.036,6.824a2,2,0,0,0,4,0c0-2.276.086-4.548.036-6.824-.052-2.369-.164-4.742,0-7.109a2,2,0,1,0-4,0Z"/><path class="b" d="M217.257,103.4a1.866,1.866,0,0,1,.62-1.182c1.722-1.68,6.821-2.977,10.024-2.306,3.149.659,6.332,3.238,9.262,6.2,1.925,2.25,1.834,6.648,1.775,11.526-.047,3.85-2.952,18.023-4.065,20.987l-.789,2.586c-3.749-.983-8.446-2.143-11.793-2.882l.306-1.883c-2.082-.885-3.034-1.736-3.456-4.122-.266-1.5.03-1.784-.88-3.007a9.865,9.865,0,0,0-2.925-1.96c-2.77-1.5-2.5-5.34-.194-6.438-1.575-2.193-1.1-5.312.186-6.213a3.973,3.973,0,0,1,.917-.479l-.128-.3c-.845-1.117-1.422-3.607-.761-4.912.58-1.146,2.781-2.06,4.138-2.073l-.655-.691C217.942,105.307,217.176,104.343,217.257,103.4Z"/><path class="e" d="M215.337,123.069a47.112,47.112,0,0,1,7.939,2.363,2.009,2.009,0,0,0,2.46-1.4,2.055,2.055,0,0,0-1.4-2.46,47.084,47.084,0,0,0-7.939-2.363,2,2,0,1,0-1.063,3.857Z"/><path class="e" d="M220.253,104.837c-.191-.206-1.049-.965-1-1.29-.031.192.24-.081.288-.118a7.171,7.171,0,0,1,2.15-.989,12.6,12.6,0,0,1,5.379-.651,12.068,12.068,0,0,1,5.672,2.963c1.57,1.294,3.25,2.542,3.766,4.581a25.948,25.948,0,0,1,.446,6.5,35.689,35.689,0,0,1-.216,4.149c-.362,2.958-1.03,6.359-1.669,9.455a60.891,60.891,0,0,1-2.127,8.654c-.887,2.421,2.977,3.465,3.857,1.064a63.868,63.868,0,0,0,2.25-9.255,99.873,99.873,0,0,0,1.821-11.145,45.747,45.747,0,0,0,.015-6.715c-.14-2.286-.443-4.812-1.823-6.723a23,23,0,0,0-6.656-5.688,12.537,12.537,0,0,0-7.1-1.881,16.042,16.042,0,0,0-7.68,2.152,4.505,4.505,0,0,0-2.346,3.305c-.141,1.8.977,3.206,2.137,4.456,1.755,1.892,4.578-.942,2.829-2.828Z"/><path class="e" d="M230.973,107.779a38.1,38.1,0,0,0-6.218-2.176,15.938,15.938,0,0,0-6.724-.471c-1.968.437-4.176,1.681-4.755,3.743a7.645,7.645,0,0,0,1.114,6.061,2.056,2.056,0,0,0,2.736.718,2.017,2.017,0,0,0,.718-2.737,4.393,4.393,0,0,1-.27-.419c-.014-.025-.25-.54-.115-.2a6.614,6.614,0,0,1-.318-1.079c-.021-.1-.073-.468-.042-.188a5.112,5.112,0,0,1-.029-.606c0-.076.089-.621,0-.225a2.248,2.248,0,0,1,.065-.257c.045-.142.028-.113-.051.085l.075-.131q-.216.252-.068.086c.044-.045.41-.371.26-.257-.18.137.233-.143.272-.166a6.019,6.019,0,0,1,.533-.281c-.289.136.268-.1.277-.1q.281-.095.569-.164c.051-.012.552-.1.278-.065-.253.033.257,0,.314,0,3.533.023,6.963,1.284,10.317,2.695a2.011,2.011,0,0,0,2.46-1.4,2.052,2.052,0,0,0-1.4-2.461Z"/><path class="e" d="M227.812,114.279a57.782,57.782,0,0,0-5.691-1.5c-2-.462-4.05-1.15-6.105-.58a5.038,5.038,0,0,0-3.7,3.95,7.617,7.617,0,0,0,1.074,5.747,2,2,0,1,0,3.454-2.019c-.1-.154-.205-.309-.3-.472-.054-.1-.226-.508-.1-.181a10.088,10.088,0,0,1-.282-1.021c.109.42,0-.044-.008-.15-.01-.167-.012-.334-.007-.5s.017-.324.035-.485c-.039.338-.014.134.038-.079.035-.143.084-.282.125-.423.109-.377-.2.309.019-.029a2.787,2.787,0,0,0,.2-.328c.043.078-.351.339-.041.089q.168-.158-.19.134a3.124,3.124,0,0,1,.279-.177,2.9,2.9,0,0,1,.28-.151c-.133.053-.135.057-.006.011.067-.022.594-.159.4-.12s.324-.019.4-.02c.158,0,.315.012.472.015.472.007-.209-.06.212.022.361.07.717.146,1.074.234.8.2,1.608.392,2.415.574a47.392,47.392,0,0,1,4.887,1.313,2.014,2.014,0,0,0,2.46-1.4,2.047,2.047,0,0,0-1.4-2.46Z"/><path class="e" d="M223.607,134.721a10.8,10.8,0,0,1-1.245-.612c-.15-.09-.3-.184-.438-.287.355.258-.048-.062-.1-.111-.124-.123-.294-.366-.1-.087a5.543,5.543,0,0,1-.3-.5c-.06-.126-.054-.1.02.072-.045-.118-.087-.237-.125-.358-.063-.2-.115-.4-.16-.6-.051-.225-.095-.454-.128-.683.046.321-.012-.178-.019-.244a8.3,8.3,0,0,0-.2-1.4,5.373,5.373,0,0,0-1.6-2.485,12.914,12.914,0,0,0-2.537-1.623c-.169-.09-.335-.189-.506-.276q-.3-.206-.075-.028c-.073-.06-.143-.124-.21-.19s-.132-.13-.193-.2q.178.257-.017-.026a4.939,4.939,0,0,1-.256-.462c.178.388-.015-.11-.031-.173-.048-.185-.049-.488-.039-.14-.006-.2-.009-.39,0-.588q.019-.227-.018.118c.02-.109.045-.216.074-.322s.24-.527.03-.135c.078-.145.156-.281.243-.421-.23.372.027,0,.1-.088q.254-.222-.029,0a2.894,2.894,0,0,1,.281-.172c2.234-1.278.221-4.736-2.019-3.453a5.545,5.545,0,0,0-2.576,5.757,5.663,5.663,0,0,0,1.426,2.928,9.861,9.861,0,0,0,2.641,1.777c.23.13.458.263.678.407.123.08.243.163.361.251-.132-.092-.111-.064.064.082.147.162.171.184.07.066q.09.129.171.264.074.117.135.24-.133-.351-.03-.05a2.551,2.551,0,0,1,.063.272c-.037-.3-.042-.332-.017-.1s.045.479.074.717a11.951,11.951,0,0,0,.333,1.84,6.827,6.827,0,0,0,4.184,4.467,2.066,2.066,0,0,0,2.736-.718,2.014,2.014,0,0,0-.717-2.736Z"/><path class="b" d="M59.068,105.756a35.064,35.064,0,0,0-4.522,3.943c-1.925,2.252-1.834,6.652-1.775,11.533.047,3.851,3.941,19.194,4.978,22.4l.239.677c1.687-.654,3.647-1.4,5.636-2.131,6.158-2.557,8.264-2.353,8.955-6.257.266-1.5-.03-1.785.88-3.008a9.853,9.853,0,0,1,2.926-1.961c2.771-1.5,2.5-5.343.194-6.442,1.575-2.194,1.1-5.314-.187-6.216a4.017,4.017,0,0,0-.929-.485l.14-.3c.845-1.118,1.422-3.608.761-4.915-.54-1.065-2.479-1.929-3.84-2.059l.355-.706c1.28-1.347,2.292-2.734.962-4.031-1.723-1.681-6.824-2.977-10.029-2.306A13.088,13.088,0,0,0,59.068,105.756Z"/><path class="e" d="M75.321,122.8a47.238,47.238,0,0,0-7.944,2.365,2.159,2.159,0,0,0-1.195.919,2,2,0,0,0,2.259,2.938,47.131,47.131,0,0,1,7.943-2.364,2.011,2.011,0,0,0,1.4-2.461,2.054,2.054,0,0,0-2.46-1.4Z"/><path class="e" d="M74.294,111.25a6.633,6.633,0,0,0,2.14-3.787,4.136,4.136,0,0,0-1.933-3.687,14.508,14.508,0,0,0-6.694-2.306,12.707,12.707,0,0,0-7.456,1.174,24.619,24.619,0,0,0-7.219,5.641c-1.679,1.9-2.1,4.511-2.285,6.956a39.948,39.948,0,0,0-.005,7.02A88.974,88.974,0,0,0,53,133.355c.852,3.615,1.693,7.27,2.825,10.81.781,2.443,4.645,1.4,3.857-1.063a151.539,151.539,0,0,1-4.337-17.791,33,33,0,0,1-.53-3.379,44.29,44.29,0,0,1,.011-6.3c.117-1.933.367-3.777,1.8-5.171a21.832,21.832,0,0,1,5.928-4.447,9.6,9.6,0,0,1,6.306-.317,11.026,11.026,0,0,1,2.861,1.032,6.749,6.749,0,0,1,.736.442c.046.186-.8,1.049-.982,1.249-1.748,1.886,1.074,4.721,2.829,2.829Z"/><path class="e" d="M61.8,115.223c3.354-1.411,6.789-2.675,10.322-2.7.135,0,.269.006.4.016-.454-.035.122.038.188.054.192.046.383.1.57.164.044.015.5.2.329.121-.11-.049.321.17.395.212.141.08.28.165.413.258-.3-.211.087.1.149.152.133.15.15.166.051.05s-.085-.1.013.058l-.075-.169a2.9,2.9,0,0,1,.089.341c-.067-.292,0-.037,0,.127,0,.2,0,.4-.018.6-.014.143-.012.137.008-.017l-.038.2a7.467,7.467,0,0,1-.339,1.183c.122-.3-.077.137-.115.2a4.523,4.523,0,0,1-.27.419,2.017,2.017,0,0,0,.717,2.737,2.045,2.045,0,0,0,2.737-.718,7.678,7.678,0,0,0,1.138-5.98c-.558-2.111-2.774-3.382-4.78-3.827a15.832,15.832,0,0,0-6.619.447,37.624,37.624,0,0,0-6.33,2.2,2.068,2.068,0,0,0-1.4,2.46,2.013,2.013,0,0,0,2.461,1.4Z"/><path class="e" d="M64.966,121.726a47.2,47.2,0,0,1,4.89-1.314q1.169-.264,2.33-.553c.354-.089.709-.174,1.068-.239.092-.017.184-.033.276-.047-.19.026-.212.031-.065.016.188,0,.377-.025.566-.023a3.583,3.583,0,0,1,.475.027c-.4-.058.148.062.229.082.223.079.252.086.089.02l.187.1c.231.146.526.344.141.058.331.246-.077.1,0-.049,0,0,.194.314.2.328.226.357-.11-.4.018.028.043.142.09.28.126.424.022.093.092.591.038.08.017.161.031.322.035.485s0,.334-.007.5c-.006.112-.1.595-.008.15-.068.32-.165.623-.252.937q-.075.2.031-.06c-.038.083-.079.165-.122.245a6.024,6.024,0,0,1-.338.554,2.012,2.012,0,0,0,.718,2.736,2.048,2.048,0,0,0,2.736-.718,7.646,7.646,0,0,0,1.089-5.674,5.043,5.043,0,0,0-3.714-4.026c-2.023-.56-4.037.1-6,.557a59.345,59.345,0,0,0-5.8,1.521,2,2,0,0,0,1.063,3.857Z"/><path class="e" d="M70.13,141.774a6.834,6.834,0,0,0,4.186-4.468,11.986,11.986,0,0,0,.333-1.841c.029-.239.056-.478.074-.717s.019-.2-.017.1a2.609,2.609,0,0,1,.063-.272c.069-.2.059-.184-.031.05l.085-.156q.1-.179.222-.348c-.1.117-.077.095.07-.066q.263-.22.064-.083.177-.131.361-.251c.221-.144.449-.278.678-.407a9.885,9.885,0,0,0,2.642-1.778,5.668,5.668,0,0,0,1.427-2.929,5.547,5.547,0,0,0-2.577-5.759c-2.238-1.281-4.255,2.174-2.019,3.454a2.7,2.7,0,0,1,.281.171q-.249-.2-.089-.059c.09.088.4.519.161.143.086.139.166.277.244.421-.2-.381,0,.03.03.135.051.183.079.473.05.121.016.2.013.39.012.588-.011.149,0,.113.026-.11-.018.112-.042.224-.07.334s-.208.559-.031.173a4.864,4.864,0,0,1-.257.463c-.2.333.144-.073-.143.16a3.731,3.731,0,0,1-.277.256c.122-.1.125-.105.009-.026-.191.121-.39.225-.59.331a12.951,12.951,0,0,0-2.538,1.623,5.384,5.384,0,0,0-1.6,2.486,7.882,7.882,0,0,0-.2,1.317c-.007.061-.071.642-.026.324-.033.229-.077.458-.128.683-.046.2-.1.4-.16.6-.035.11-.228.528-.067.21a5.621,5.621,0,0,1-.293.511q-.123.178.069-.081c-.069.082-.142.161-.218.236s-.449.367-.1.112c-.141.1-.288.2-.438.286a10.722,10.722,0,0,1-1.245.613,2.014,2.014,0,0,0-.718,2.737,2.052,2.052,0,0,0,2.736.717Z"/><path class="e" d="M57.148,151.3c-.461-1.7-1.155-3.464-1.44-5.2v1.064c-.074.451-1,.555-.184.259.219-.08.435-.178.652-.265q.636-.256,1.276-.507,1.64-.645,3.287-1.269,3.779-1.436,7.584-2.8c2.016-.72,4.035-1.441,6.083-2.063a3.948,3.948,0,0,0,.555-.165l.143-.04q.8-.169-.933-.709a5.5,5.5,0,0,0,.484,1.568c.322,1.074.629,2.152.953,3.226.743,2.457,4.6,1.41,3.857-1.064-.338-1.12-.659-2.246-1-3.367-.413-1.375-.747-2.928-2.264-3.476-1.894-.684-4.61.719-6.408,1.34-4.934,1.7-9.842,3.514-14.685,5.465-1.435.578-2.909,1.094-3.261,2.8a6.489,6.489,0,0,0,.547,3c.309,1.084.6,2.174.893,3.262.674,2.482,4.533,1.429,3.857-1.063Z"/><path class="e" d="M240.333,149.107c.259-1.563.667-3.089,1-4.637a3.088,3.088,0,0,0-2.142-3.936c-2-.667-4.1-1.132-6.144-1.658-4.388-1.129-8.818-2.359-13.294-3.095-1.875-.309-3.466.358-3.925,2.336-.329,1.413-.5,2.862-.835,4.275-.6,2.5,3.258,3.57,3.857,1.063a35.578,35.578,0,0,1,1-4.849l-.515.882c-.459.54-1.212-.01-.58.162.149.04.309.054.461.083.4.074.8.155,1.2.238.925.192,1.848.4,2.769.609,2.282.524,4.558,1.08,6.829,1.652,2.079.523,4.155,1.059,6.222,1.626q.6.165,1.205.336a2.254,2.254,0,0,0,.524.15q.816.3-.46-1.07l-.061.265a11.464,11.464,0,0,0-.5,2.142c-.175.784-.334,1.57-.466,2.363a2.061,2.061,0,0,0,1.4,2.46,2.015,2.015,0,0,0,2.46-1.4Z"/><path class="e" d="M149.628,204.279a31.383,31.383,0,0,1,.733,3.363l-.071-.532a2.068,2.068,0,0,1,.012.465l.072-.532a1.083,1.083,0,0,1-.052.209l.2-.478a.761.761,0,0,1-.074.134l.313-.405a.756.756,0,0,1-.11.109l.405-.313a2.341,2.341,0,0,1-.267.141l.478-.2a1.944,1.944,0,0,1-.449.131l.532-.072a1.752,1.752,0,0,1-.422,0l.532.072c-.159-.022-.315-.061-.474-.083a1.511,1.511,0,0,0-.8-.035,1.492,1.492,0,0,0-.744.237,2,2,0,0,0-.717,2.736,1.91,1.91,0,0,0,1.2.919c.386.053.761.15,1.154.168a3.724,3.724,0,0,0,1.731-.417,2.556,2.556,0,0,0,1.4-1.679,4.087,4.087,0,0,0-.016-1.778c-.182-1.084-.432-2.158-.71-3.221a2,2,0,0,0-2.46-1.4,2.039,2.039,0,0,0-1.4,2.461Z"/><path class="e" d="M132.317,194.763c-.55,1.784-.194,5.888,3.186,6.239,4.467-.024,4.708-4.986,3.205-7.32C137.478,191.771,133.857,190.975,132.317,194.763Z"/><path class="e" d="M167.945,194.781c.549,1.785.189,5.889-3.192,6.236-4.467-.029-4.7-4.991-3.2-7.324C162.788,191.784,166.409,190.991,167.945,194.781Z"/><path class="e" d="M146.725,219.51c.919-.175,1.839-.348,2.764-.5.213-.033.427-.066.642-.1a1.7,1.7,0,0,1,.325-.041c.464-.053.927-.1,1.393-.132a19.006,19.006,0,0,1,2.668-.009c.212.015.424.035.636.058-.33-.036.249.038.312.049.21.037.42.077.629.125.12.026.238.055.356.088-.233-.118-.261-.116-.082.006l-.717-.717a.922.922,0,0,1-.107-.606q.03-.21-.026.107c-.046.183-.088.364-.145.544-.013.043-.175.506-.093.29s-.111.235-.132.276a8.187,8.187,0,0,1-.582.974c-.025.037-.32.421-.183.254.107-.132-.224.254-.27.305a15.95,15.95,0,0,1-3.149,2.635,2.045,2.045,0,0,0-.717,2.737,2.024,2.024,0,0,0,2.736.717,20.536,20.536,0,0,0,4.7-4.171c1.211-1.59,2.853-4.743,1.11-6.486-.866-.866-2.28-.962-3.428-1.1a18.223,18.223,0,0,0-3.194-.094,49.492,49.492,0,0,0-6.509.928,2.011,2.011,0,0,0-1.4,2.46,2.053,2.053,0,0,0,2.461,1.4Z"/></svg>